<?xml version="1.0" encoding="UTF-8" standalone="no"?>
<svg
   xmlns:dc="http://purl.org/dc/elements/1.1/"
   xmlns:cc="http://creativecommons.org/ns#"
   xmlns:rdf="http://www.w3.org/1999/02/22-rdf-syntax-ns#"
   xmlns:svg="http://www.w3.org/2000/svg"
   xmlns="http://www.w3.org/2000/svg"
   xmlns:sodipodi="http://sodipodi.sourceforge.net/DTD/sodipodi-0.dtd"
   xmlns:inkscape="http://www.inkscape.org/namespaces/inkscape"
   height="1052.3622"
   width="744.09448"
   version="1.1"
   y="0px"
   x="0px"
   viewBox="0 0 744.09449 1052.3622"
   id="svg2"
   inkscape:version="0.48.5 r10040"
   sodipodi:docname="ccbysa.svg">
  <metadata
     id="metadata18">
    <rdf:RDF>
      <cc:Work
         rdf:about="">
        <dc:format>image/svg+xml</dc:format>
        <dc:type
           rdf:resource="http://purl.org/dc/dcmitype/StillImage" />
        <dc:title>Creative Commons “Attribution-Share Alike” license icon</dc:title>
      </cc:Work>
    </rdf:RDF>
  </metadata>
  <defs
     id="defs16">
    <pattern
       patternUnits="userSpaceOnUse"
       width="87.999999"
       height="30.999999"
       patternTransform="translate(328.04725,510.6811)"
       id="pattern3857">
      <path
         inkscape:connector-curvature="0"
         d="M 1.65625,0 C 0.74824999,0 0,0.74224999 0,1.65625 l 0,28.968749 c 0,0.207 0.17,0.375 0.37499999,0.375 l 87.24999901,0 c 0.205,0 0.375,-0.168 0.375,-0.375 l 0,-28.968749 C 87.999999,0.74224999 87.251749,0 86.343749,0 L 1.65625,0 z m 0,0.74999999 84.687499,0 c 0.498,0 0.90625,0.40525001 0.90625,0.90625001 l 0,20.125 -60.531249,0 c -2.219,4.038 -6.49925,6.75 -11.40625,6.75 -4.908,0 -9.1892501,-2.709 -11.4062501,-6.75 l -3.15624991,0 0,-20.125 c 0,-0.501 0.40825001,-0.90625001 0.90625001,-0.90625001 z M 46.437499,2.5 c -2.355,0 -4.33676,0.8147499 -5.96875,2.4687499 -1.675,1.711 -2.53125,3.75475 -2.53125,6.0937501 0,2.339 0.85625,4.34825 2.53125,6.03125 1.67399,1.683 3.65575,2.53125 5.96875,2.53125 2.342,0 4.37675,-0.8645 6.09375,-2.5625 1.619,-1.611 2.4375,-3.603 2.4375,-6 0,-2.3970001 -0.82175,-4.4387501 -2.46875,-6.0937501 C 50.854999,3.3147499 48.822499,2.5 46.437499,2.5 z m 20.84375,0 c -2.355,0 -4.33776,0.8147499 -5.96875,2.4687499 -1.675,1.712 -2.53125,3.75375 -2.53125,6.0937501 0,2.34 0.85625,4.34825 2.53125,6.03125 1.67399,1.683 3.65675,2.53125 5.96875,2.53125 2.342,0 4.37575,-0.8655 6.09375,-2.5625 1.616,-1.611 2.40625,-3.604 2.40625,-6 0,-2.3960001 -0.82175,-4.4387501 -2.46875,-6.0937501 C 71.667499,3.3147499 69.666249,2.5 67.281249,2.5 z M 15.3125,2.90625 c -3.173,0 -5.8645102,1.1117499 -8.0625001,3.3437499 -2.256,2.309 -3.375,5.0315001 -3.375,8.1875001 0,3.156 1.119,5.88525 3.375,8.15625 C 9.5049998,24.86375 12.1965,26 15.3125,26 c 3.154,0 5.8745,-1.1485 8.1875,-3.4375 2.18,-2.174 3.28125,-4.892 3.28125,-8.125 0,-3.233 -1.12675,-5.9555001 -3.34375,-8.1875001 -2.217,-2.232 -4.913,-3.3437499 -8.125,-3.3437499 z m 31.156249,1.1249999 c 1.92999,0 3.55825,0.6935 4.90625,2.0625 1.363,1.355 2.0625,3.0157499 2.0625,4.9687501 0,1.968 -0.665,3.60825 -2,4.90625 -1.405,1.398 -3.06675,2.09375 -4.96875,2.09375 -1.901,0 -3.53026,-0.70975 -4.90625,-2.09375 -1.377,-1.383 -2.09375,-3.00825 -2.09375,-4.90625 0,-1.8960002 0.70275,-3.5567501 2.09375,-4.9687501 1.33399,-1.369 2.97625,-2.0625 4.90625,-2.0625 z m 20.84375,0 c 1.92999,0 3.55724,0.6935 4.90625,2.0625 1.361,1.355 2.03125,3.0147499 2.03125,4.9687501 0,1.968 -0.665,3.60825 -2,4.90625 -1.405,1.397 -3.0355,2.09375 -4.9375,2.09375 -1.901,0 -3.56151,-0.71075 -4.9375,-2.09375 -1.376,-1.384 -2.0625,-3.00925 -2.0625,-4.90625 0,-1.8970002 0.70275,-3.5567501 2.09375,-4.9687501 1.332,-1.371 2.97625,-2.0625 4.90625,-2.0625 z m -51.968749,0.9375 c 2.601,0 4.79899,0.94325 6.625,2.78125 1.826,1.8379999 2.75,4.0515001 2.75,6.6875001 0,2.656 -0.8905,4.873 -2.6875,6.625 -1.893,1.887 -4.1245,2.84375 -6.6875,2.84375 -2.563,0 -4.77,-0.9455 -6.6250001,-2.8125 -1.855,-1.867 -2.78125,-4.09525 -2.78125,-6.65625 0,-2.56 0.9375,-4.7825002 2.8125,-6.6875001 1.7970001,-1.847 3.9927501,-2.78125 6.5937501,-2.78125 z m 31.124999,0.5625 c -0.65701,0 -1.1875,0.5265 -1.1875,1.1875 0,0.661 0.53049,1.21875 1.1875,1.21875 0.65599,0 1.1875,-0.55775 1.1875,-1.21875 0,-0.661 -0.53151,-1.1875 -1.1875,-1.1875 z m 20.78125,1 c -1.887,0 -3.41,1.1595 -3.75,3.3124999 l -0.65625,0 1.6875,1.6875002 1.6875,-1.6875002 -0.625,0 c 0.16999,-1.1719999 0.97225,-1.4999999 1.90625,-1.4999999 1.272,0 1.9375,0.9379999 1.9375,2.7500001 0,1.727 -0.79101,2.875 -2,2.875 -1.06,0 -1.78075,-0.4115 -1.84375,-1.5625 l -2.15625,0 c 0.298,2.217 1.926,3.34375 3.75,3.34375 2.65099,0 4.4375,-2.01375 4.4375,-4.59375 0,-2.6440001 -1.659,-4.6250001 -4.375,-4.6250001 z m -22.53125,1.84375 c -0.303,0 -0.5625,0.2565 -0.5625,0.5625 l 0,3.5000001 0.96875,0 0,4.15625 2.65625,0 0,-4.15625 0.96875,0 0,-3.5000001 c 0,-0.306 -0.25851,-0.5625 -0.5625,-0.5625 l -3.46875,0 z M 12.15625,10.875 c -0.954,0 -1.76725,0.32275 -2.4062502,0.96875 -0.639,0.646 -0.9374999,1.49475 -0.9374999,2.59375 0,1.117 0.3164999,2.02025 0.9374999,2.65625 0.6200002,0.637 1.4387502,0.9375 2.4687502,0.9375 1.336,0 2.332,-0.58725 3,-1.78125 L 13.8125,15.5 c -0.286,0.669 -0.77051,1 -1.4375,1 -1.01101,0 -1.5,-0.6925 -1.5,-2.0625 0,-1.369 0.48899,-2.0625 1.5,-2.0625 0.572,0 1.0255,0.3095 1.3125,0.9375 l 1.5,-0.78125 C 14.5765,11.41225 13.56925,10.875 12.15625,10.875 z m 6.625,0 c -0.972,0 -1.77825,0.32275 -2.40625,0.96875 -0.629,0.646 -0.9375,1.49475 -0.9375,2.59375 0,1.117 0.31849,2.02025 0.9375,2.65625 0.62,0.637 1.43975,0.9375 2.46875,0.9375 1.334,0 2.333,-0.58725 3,-1.78125 l -1.4375,-0.75 c -0.267,0.669 -0.73725,1 -1.40625,1 -1.031,0 -1.53125,-0.6925 -1.53125,-2.0625 0,-1.369 0.50025,-2.0625 1.53125,-2.0625 0.55399,0 0.963,0.3095 1.25,0.9375 l 1.5625,-0.78125 C 21.2035,11.41225 20.19125,10.875 18.78125,10.875 z m 45.031249,13.1875 c 0.10994,-0.008 0.2045,0 0.3125,0 0.254,0 0.48575,0.005 0.71875,0.0625 0.23199,0.057 0.44399,0.15325 0.625,0.28125 0.182,0.127 0.3315,0.301 0.4375,0.5 0.10699,0.198 0.15625,0.43475 0.15625,0.71875 l -1.03125,0 c -0.009,-0.146 -0.0428,-0.28 -0.0937,-0.375 -0.053,-0.096 -0.13275,-0.16375 -0.21875,-0.21875 -0.086,-0.055 -0.17026,-0.0727 -0.28125,-0.0937 -0.11001,-0.023 -0.24401,-0.0625 -0.375,-0.0625 -0.086,0 -0.164,0.0143 -0.25,0.0312 -0.086,0.019 -0.14976,0.0488 -0.21875,0.0937 -0.07,0.047 -0.14251,0.1195 -0.1875,0.1875 -0.045,0.068 -0.0625,0.145 -0.0625,0.25 0,0.096 0.0275,0.192 0.0625,0.25 0.037,0.061 0.0815,0.10625 0.1875,0.15625 0.106,0.05 0.28174,0.10625 0.46875,0.15625 0.18799,0.049 0.41674,0.1095 0.71875,0.1875 0.092,0.018 0.215,0.0448 0.375,0.0937 0.16099,0.047 0.30975,0.11275 0.46875,0.21875 0.15899,0.105 0.3215,0.2615 0.4375,0.4375 0.115,0.176 0.15625,0.38225 0.15625,0.65625 0,0.225 -0.039,0.434 -0.125,0.625 -0.086,0.192 -0.20501,0.361 -0.375,0.5 -0.17101,0.141 -0.37401,0.26575 -0.625,0.34375 -0.252,0.078 -0.545,0.0937 -0.875,0.0937 -0.26801,0 -0.52926,-0.0267 -0.78125,-0.0937 -0.251,-0.065 -0.49451,-0.1715 -0.6875,-0.3125 -0.19201,-0.143 -0.3245,-0.31125 -0.4375,-0.53125 -0.11301,-0.219 -0.1925,-0.48025 -0.1875,-0.78125 l 1.0625,0 c -10e-4,0.165 0.004,0.29225 0.0625,0.40625 0.059,0.115 0.153,0.21125 0.25,0.28125 0.098,0.071 0.21275,0.12225 0.34375,0.15625 0.133,0.034 0.26625,0.0625 0.40625,0.0625 0.095,0 0.20349,-0.0162 0.3125,-0.0312 0.109,-0.015 0.18525,-0.0477 0.28125,-0.0937 0.094,-0.046 0.18799,-0.1075 0.25,-0.1875 0.064,-0.08 0.0937,-0.1885 0.0937,-0.3125 0,-0.132 -0.041,-0.2295 -0.125,-0.3125 -0.083,-0.083 -0.20875,-0.16275 -0.34375,-0.21875 -0.136,-0.055 -0.2665,-0.084 -0.4375,-0.125 -0.173,-0.042 -0.35626,-0.10625 -0.53125,-0.15625 -0.182,-0.046 -0.35825,-0.0912 -0.53125,-0.15625 -0.17101,-0.066 -0.33276,-0.144 -0.46875,-0.25 -0.137,-0.104 -0.22851,-0.24825 -0.3125,-0.40625 -0.083,-0.158 -0.125,-0.3395 -0.125,-0.5625 0,-0.252 0.0493,-0.47125 0.15625,-0.65625 0.105,-0.184 0.23424,-0.34475 0.40625,-0.46875 0.172,-0.123 0.37575,-0.22125 0.59375,-0.28125 0.1085,-0.0295 0.2338,-0.0542 0.34375,-0.0625 z m -22.09375,0.0937 2.28125,0 c 0.231,0 0.43399,0.0215 0.625,0.0625 0.191,0.041 0.363,0.12575 0.5,0.21875 0.13599,0.094 0.23749,0.221 0.3125,0.375 0.075,0.155 0.125,0.3355 0.125,0.5625 0,0.247 -0.0755,0.46 -0.1875,0.625 -0.11,0.164 -0.283,0.30225 -0.5,0.40625 0.29999,0.088 0.5385,0.2205 0.6875,0.4375 0.148,0.218 0.21875,0.47625 0.21875,0.78125 0,0.246 -0.03,0.47525 -0.125,0.65625 -0.095,0.18 -0.24425,0.3235 -0.40625,0.4375 -0.161,0.114 -0.3565,0.195 -0.5625,0.25 -0.207,0.055 -0.406,0.0937 -0.625,0.0937 l -2.34375,0 0,-4.90625 z m 4.25,0 1.1875,0 1.15625,1.9375 1.125,-1.9375 1.1875,0 -1.8125,3.03125 0,1.875 -1.0625,0 0,-1.90625 -1.78125,-3 z m 22.21875,0 1.09375,0 1.8125,4.90625 -1.125,0 -0.34375,-1.09375 -1.8125,0 -0.40625,1.09375 -1.0625,0 1.84375,-4.90625 z m -25.40625,0.84375 0,1.15625 1.09375,0 c 0.191,0 0.34574,-0.0662 0.46875,-0.15625 0.123,-0.092 0.1875,-0.2325 0.1875,-0.4375 0,-0.114 -0.0215,-0.20925 -0.0625,-0.28125 -0.041,-0.072 -0.11851,-0.11525 -0.1875,-0.15625 -0.069,-0.041 -0.12975,-0.0777 -0.21875,-0.0937 -0.089,-0.016 -0.18625,-0.0312 -0.28125,-0.0312 l -1,0 z m 25.9375,0.375 -0.625,1.78125 1.25,0 -0.625,-1.78125 z m -25.9375,1.5 0,1.34375 1.15625,0 c 0.105,0 0.18624,-0.0112 0.28125,-0.0312 0.095,-0.021 0.178,-0.0447 0.25,-0.0937 0.073,-0.047 0.1435,-0.1055 0.1875,-0.1875 0.044,-0.082 0.0625,-0.1845 0.0625,-0.3125 0,-0.25 -0.0778,-0.4565 -0.21875,-0.5625 -0.141,-0.107 -0.3315,-0.15625 -0.5625,-0.15625 l -1.15625,0 z"
         id="path10" />
    </pattern>
  </defs>
  <sodipodi:namedview
     pagecolor="#ffffff"
     bordercolor="#666666"
     borderopacity="1"
     objecttolerance="10"
     gridtolerance="10"
     guidetolerance="10"
     inkscape:pageopacity="0"
     inkscape:pageshadow="2"
     inkscape:window-width="1366"
     inkscape:window-height="709"
     id="namedview14"
     showgrid="false"
     inkscape:zoom="0.30935922"
     inkscape:cx="371.98804"
     inkscape:cy="526.17487"
     inkscape:window-x="0"
     inkscape:window-y="0"
     inkscape:window-maximized="1"
     inkscape:current-layer="svg2"
     showguides="true"
     inkscape:guide-bbox="true" />
  <title
     id="title4">Creative Commons “Attribution-Share Alike” license icon</title>
  <g
     id="g4721"
     transform="matrix(1.4333249,0,0,1.4333249,-161.2392,-228.01655)">
    <path
       id="path4711"
       transform="translate(-2.3563764e-6,0)"
       d="m 329.71875,510.6875 c -0.908,0 -1.65625,0.74225 -1.65625,1.65625 l 0,28.96875 c 0,0.207 0.17,0.375 0.375,0.375 l 87.25,0 c 0.205,0 0.375,-0.168 0.375,-0.375 l 0,-28.96875 c 0,-0.914 -0.74825,-1.65625 -1.65625,-1.65625 l -84.6875,0 z m 0,0.75 84.6875,0 c 0.498,0 0.90625,0.40525 0.90625,0.90625 l 0,20.125 -60.53125,0 c -2.219,4.038 -6.49925,6.75 -11.40625,6.75 -4.908,0 -9.18925,-2.709 -11.40625,-6.75 l -3.15625,0 0,-20.125 c 0,-0.501 0.40825,-0.90625 0.90625,-0.90625 z M 391.875,534.75 c 0.10994,-0.008 0.2045,0 0.3125,0 0.254,0 0.48575,0.005 0.71875,0.0625 0.23199,0.057 0.44399,0.15325 0.625,0.28125 0.182,0.127 0.3315,0.301 0.4375,0.5 0.10699,0.198 0.15625,0.43475 0.15625,0.71875 l -1.03125,0 c -0.009,-0.146 -0.0428,-0.28 -0.0937,-0.375 -0.053,-0.096 -0.13275,-0.16375 -0.21875,-0.21875 -0.086,-0.055 -0.17026,-0.0728 -0.28125,-0.0937 -0.11001,-0.023 -0.24401,-0.0625 -0.375,-0.0625 -0.086,0 -0.164,0.0144 -0.25,0.0312 -0.086,0.019 -0.14976,0.0489 -0.21875,0.0937 -0.07,0.047 -0.14251,0.1195 -0.1875,0.1875 -0.045,0.068 -0.0625,0.145 -0.0625,0.25 0,0.096 0.0275,0.192 0.0625,0.25 0.037,0.061 0.0815,0.10625 0.1875,0.15625 0.106,0.05 0.28174,0.10625 0.46875,0.15625 0.18799,0.049 0.41674,0.1095 0.71875,0.1875 0.092,0.018 0.215,0.0448 0.375,0.0937 0.16099,0.047 0.30975,0.11275 0.46875,0.21875 0.15899,0.105 0.3215,0.2615 0.4375,0.4375 0.115,0.176 0.15625,0.38225 0.15625,0.65625 0,0.225 -0.039,0.434 -0.125,0.625 -0.086,0.192 -0.20501,0.361 -0.375,0.5 -0.17101,0.141 -0.37401,0.26575 -0.625,0.34375 -0.252,0.078 -0.545,0.0937 -0.875,0.0937 -0.26801,0 -0.52926,-0.0267 -0.78125,-0.0937 -0.251,-0.065 -0.49451,-0.1715 -0.6875,-0.3125 -0.19201,-0.143 -0.3245,-0.31125 -0.4375,-0.53125 -0.11301,-0.219 -0.1925,-0.48025 -0.1875,-0.78125 l 1.0625,0 c -10e-4,0.165 0.004,0.29225 0.0625,0.40625 0.059,0.115 0.153,0.21125 0.25,0.28125 0.098,0.071 0.21275,0.12225 0.34375,0.15625 0.133,0.034 0.26625,0.0625 0.40625,0.0625 0.095,0 0.20349,-0.0163 0.3125,-0.0312 0.109,-0.015 0.18525,-0.0477 0.28125,-0.0937 0.094,-0.046 0.18799,-0.1075 0.25,-0.1875 0.064,-0.08 0.0937,-0.1885 0.0937,-0.3125 0,-0.132 -0.041,-0.2295 -0.125,-0.3125 -0.083,-0.083 -0.20875,-0.16275 -0.34375,-0.21875 -0.136,-0.055 -0.2665,-0.084 -0.4375,-0.125 -0.173,-0.042 -0.35626,-0.10625 -0.53125,-0.15625 -0.182,-0.046 -0.35825,-0.0912 -0.53125,-0.15625 -0.17101,-0.066 -0.33276,-0.144 -0.46875,-0.25 -0.137,-0.104 -0.22851,-0.24825 -0.3125,-0.40625 -0.083,-0.158 -0.125,-0.3395 -0.125,-0.5625 0,-0.252 0.0493,-0.47125 0.15625,-0.65625 0.105,-0.184 0.23424,-0.34475 0.40625,-0.46875 0.172,-0.123 0.37575,-0.22125 0.59375,-0.28125 0.1085,-0.0295 0.2338,-0.0542 0.34375,-0.0625 z m -22.09375,0.0937 2.28125,0 c 0.231,0 0.43399,0.0215 0.625,0.0625 0.191,0.041 0.363,0.12575 0.5,0.21875 0.13599,0.094 0.23749,0.221 0.3125,0.375 0.075,0.155 0.125,0.3355 0.125,0.5625 0,0.247 -0.0755,0.46 -0.1875,0.625 -0.11,0.164 -0.283,0.30225 -0.5,0.40625 0.29999,0.088 0.5385,0.2205 0.6875,0.4375 0.148,0.218 0.21875,0.47625 0.21875,0.78125 0,0.246 -0.03,0.47525 -0.125,0.65625 -0.095,0.18 -0.24425,0.3235 -0.40625,0.4375 -0.161,0.114 -0.3565,0.195 -0.5625,0.25 -0.207,0.055 -0.406,0.0937 -0.625,0.0937 l -2.34375,0 0,-4.90625 z m 4.25,0 1.1875,0 1.15625,1.9375 1.125,-1.9375 1.1875,0 -1.8125,3.03125 0,1.875 -1.0625,0 0,-1.90625 -1.78125,-3 z m 22.21875,0 1.09375,0 1.8125,4.90625 -1.125,0 -0.34375,-1.09375 -1.8125,0 -0.40625,1.09375 -1.0625,0 1.84375,-4.90625 z"
       inkscape:connector-curvature="0" />
    <path
       id="path4707"
       transform="translate(-2.3563764e-6,0)"
       d="m 374.5,513.1875 c -2.355,0 -4.33676,0.81475 -5.96875,2.46875 -1.675,1.711 -2.53125,3.75475 -2.53125,6.09375 0,2.339 0.85625,4.34825 2.53125,6.03125 1.67399,1.683 3.65575,2.53125 5.96875,2.53125 2.342,0 4.37675,-0.8645 6.09375,-2.5625 1.619,-1.611 2.4375,-3.603 2.4375,-6 0,-2.397 -0.82175,-4.43875 -2.46875,-6.09375 -1.645,-1.654 -3.6775,-2.46875 -6.0625,-2.46875 z m 0.0312,1.53125 c 1.92999,0 3.55825,0.6935 4.90625,2.0625 1.363,1.355 2.0625,3.01575 2.0625,4.96875 0,1.968 -0.665,3.60825 -2,4.90625 -1.405,1.398 -3.06675,2.09375 -4.96875,2.09375 -1.901,0 -3.53026,-0.70975 -4.90625,-2.09375 -1.377,-1.383 -2.09375,-3.00825 -2.09375,-4.90625 0,-1.896 0.70275,-3.55675 2.09375,-4.96875 1.33399,-1.369 2.97625,-2.0625 4.90625,-2.0625 z"
       inkscape:connector-curvature="0" />
    <path
       id="path4705"
       transform="translate(-2.3563764e-6,0)"
       d="m 395.34375,513.1875 c -2.355,0 -4.33776,0.81475 -5.96875,2.46875 -1.675,1.712 -2.53125,3.75375 -2.53125,6.09375 0,2.34 0.85625,4.34825 2.53125,6.03125 1.67399,1.683 3.65675,2.53125 5.96875,2.53125 2.342,0 4.37575,-0.8655 6.09375,-2.5625 1.616,-1.611 2.40625,-3.604 2.40625,-6 0,-2.396 -0.82175,-4.43875 -2.46875,-6.09375 -1.645,-1.654 -3.64625,-2.46875 -6.03125,-2.46875 z m 0.0312,1.53125 c 1.92999,0 3.55724,0.6935 4.90625,2.0625 1.361,1.355 2.03125,3.01475 2.03125,4.96875 0,1.968 -0.665,3.60825 -2,4.90625 -1.405,1.397 -3.0355,2.09375 -4.9375,2.09375 -1.901,0 -3.56151,-0.71075 -4.9375,-2.09375 -1.376,-1.384 -2.0625,-3.00925 -2.0625,-4.90625 0,-1.897 0.70275,-3.55675 2.09375,-4.96875 1.332,-1.371 2.97625,-2.0625 4.90625,-2.0625 z"
       inkscape:connector-curvature="0" />
    <path
       transform="translate(-2.3563764e-6,0)"
       id="path4703"
       d="m 343.375,513.59375 c -3.173,0 -5.86451,1.11175 -8.0625,3.34375 -2.256,2.309 -3.375,5.0315 -3.375,8.1875 0,3.156 1.119,5.88525 3.375,8.15625 2.255,2.27 4.9465,3.40625 8.0625,3.40625 3.154,0 5.8745,-1.1485 8.1875,-3.4375 2.18,-2.174 3.28125,-4.892 3.28125,-8.125 0,-3.233 -1.12675,-5.9555 -3.34375,-8.1875 -2.217,-2.232 -4.913,-3.34375 -8.125,-3.34375 z m 0.0312,2.0625 c 2.601,0 4.79899,0.94325 6.625,2.78125 1.826,1.838 2.75,4.0515 2.75,6.6875 0,2.656 -0.8905,4.873 -2.6875,6.625 -1.893,1.887 -4.1245,2.84375 -6.6875,2.84375 -2.563,0 -4.77,-0.9455 -6.625,-2.8125 C 334.92625,529.91425 334,527.686 334,525.125 c 0,-2.56 0.9375,-4.7825 2.8125,-6.6875 1.797,-1.847 3.99275,-2.78125 6.59375,-2.78125 z"
       inkscape:connector-curvature="0" />
    <path
       id="path4695"
       d="m 374.516,516.21235 c -0.65701,0 -1.1875,0.5265 -1.1875,1.1875 0,0.661 0.53049,1.21875 1.1875,1.21875 0.65599,0 1.1875,-0.55775 1.1875,-1.21875 0,-0.661 -0.53151,-1.1875 -1.1875,-1.1875 z"
       inkscape:connector-curvature="0" />
    <path
       id="path4693"
       d="m 395.29725,517.21235 c -1.887,0 -3.41,1.1595 -3.75,3.3125 l -0.65625,0 1.6875,1.6875 1.6875,-1.6875 -0.625,0 c 0.16999,-1.172 0.97225,-1.5 1.90625,-1.5 1.272,0 1.9375,0.938 1.9375,2.75 0,1.727 -0.79101,2.875 -2,2.875 -1.06,0 -1.78075,-0.4115 -1.84375,-1.5625 l -2.15625,0 c 0.298,2.217 1.926,3.34375 3.75,3.34375 2.65099,0 4.4375,-2.01375 4.4375,-4.59375 0,-2.644 -1.659,-4.625 -4.375,-4.625 z"
       inkscape:connector-curvature="0" />
    <path
       id="path4691"
       d="m 372.766,519.0561 c -0.303,0 -0.5625,0.2565 -0.5625,0.5625 l 0,3.5 0.96875,0 0,4.15625 2.65625,0 0,-4.15625 0.96875,0 0,-3.5 c 0,-0.306 -0.25851,-0.5625 -0.5625,-0.5625 l -3.46875,0 z"
       inkscape:connector-curvature="0" />
    <path
       id="path4689"
       d="m 340.2035,521.5561 c -0.954,0 -1.76725,0.32275 -2.40625,0.96875 -0.639,0.646 -0.9375,1.49475 -0.9375,2.59375 0,1.117 0.3165,2.02025 0.9375,2.65625 0.62,0.637 1.43875,0.9375 2.46875,0.9375 1.336,0 2.332,-0.58725 3,-1.78125 l -1.40625,-0.75 c -0.286,0.669 -0.77051,1 -1.4375,1 -1.01101,0 -1.5,-0.6925 -1.5,-2.0625 0,-1.369 0.48899,-2.0625 1.5,-2.0625 0.572,0 1.0255,0.3095 1.3125,0.9375 l 1.5,-0.78125 c -0.611,-1.119 -1.61825,-1.65625 -3.03125,-1.65625 z"
       inkscape:connector-curvature="0" />
    <path
       id="path4687"
       d="m 346.8285,521.5561 c -0.972,0 -1.77825,0.32275 -2.40625,0.96875 -0.629,0.646 -0.9375,1.49475 -0.9375,2.59375 0,1.117 0.31849,2.02025 0.9375,2.65625 0.62,0.637 1.43975,0.9375 2.46875,0.9375 1.334,0 2.333,-0.58725 3,-1.78125 l -1.4375,-0.75 c -0.267,0.669 -0.73725,1 -1.40625,1 -1.031,0 -1.53125,-0.6925 -1.53125,-2.0625 0,-1.369 0.50025,-2.0625 1.53125,-2.0625 0.55399,0 0.963,0.3095 1.25,0.9375 l 1.5625,-0.78125 c -0.609,-1.119 -1.62125,-1.65625 -3.03125,-1.65625 z"
       inkscape:connector-curvature="0" />
    <path
       id="path4677"
       d="m 370.8285,535.68105 0,1.15625 1.09375,0 c 0.191,0 0.34574,-0.0662 0.46875,-0.15625 0.123,-0.092 0.1875,-0.2325 0.1875,-0.4375 0,-0.114 -0.0215,-0.20925 -0.0625,-0.28125 -0.041,-0.072 -0.11851,-0.11525 -0.1875,-0.15625 -0.069,-0.041 -0.12975,-0.0777 -0.21875,-0.0937 -0.089,-0.016 -0.18625,-0.0312 -0.28125,-0.0312 l -1,0 z"
       inkscape:connector-curvature="0" />
    <path
       id="path4675"
       d="m 396.766,536.05605 -0.625,1.78125 1.25,0 -0.625,-1.78125 z"
       inkscape:connector-curvature="0" />
    <path
       id="path4580"
       d="m 370.8285,537.55605 0,1.34375 1.15625,0 c 0.105,0 0.18624,-0.0112 0.28125,-0.0312 0.095,-0.021 0.178,-0.0447 0.25,-0.0937 0.073,-0.047 0.1435,-0.1055 0.1875,-0.1875 0.044,-0.082 0.0625,-0.1845 0.0625,-0.3125 0,-0.25 -0.0778,-0.4565 -0.21875,-0.5625 -0.141,-0.107 -0.3315,-0.15625 -0.5625,-0.15625 l -1.15625,0 z"
       inkscape:connector-curvature="0" />
  </g>
</svg>
