<?xml version="1.0" encoding="UTF-8" standalone="no"?>
<!-- Created with Inkscape (http://www.inkscape.org/) -->

<svg
   xmlns:dc="http://purl.org/dc/elements/1.1/"
   xmlns:cc="http://creativecommons.org/ns#"
   xmlns:rdf="http://www.w3.org/1999/02/22-rdf-syntax-ns#"
   xmlns:svg="http://www.w3.org/2000/svg"
   xmlns="http://www.w3.org/2000/svg"
   xmlns:sodipodi="http://sodipodi.sourceforge.net/DTD/sodipodi-0.dtd"
   xmlns:inkscape="http://www.inkscape.org/namespaces/inkscape"
   width="744.09448819"
   height="1052.3622047"
   id="svg2"
   version="1.1"
   inkscape:version="0.48.5 r10040"
   sodipodi:docname="RigacciOrg.svg">
  <defs
     id="defs4" />
  <sodipodi:namedview
     id="base"
     pagecolor="#ffffff"
     bordercolor="#666666"
     borderopacity="1.0"
     inkscape:pageopacity="0.0"
     inkscape:pageshadow="2"
     inkscape:zoom="0.9899495"
     inkscape:cx="280.67678"
     inkscape:cy="473.71139"
     inkscape:document-units="px"
     inkscape:current-layer="layer1"
     showgrid="false"
     inkscape:window-width="1366"
     inkscape:window-height="709"
     inkscape:window-x="0"
     inkscape:window-y="0"
     inkscape:window-maximized="1" />
  <metadata
     id="metadata7">
    <rdf:RDF>
      <cc:Work
         rdf:about="">
        <dc:format>image/svg+xml</dc:format>
        <dc:type
           rdf:resource="http://purl.org/dc/dcmitype/StillImage" />
        <dc:title />
      </cc:Work>
    </rdf:RDF>
  </metadata>
  <g
     inkscape:label="Layer 1"
     inkscape:groupmode="layer"
     id="layer1">
    <g
       style="font-size:38.29940796px;font-style:normal;font-variant:normal;font-weight:normal;font-stretch:normal;line-height:125%;letter-spacing:0px;word-spacing:0px;fill:#000000;fill-opacity:1;stroke:none;font-family:Lobster Two;-inkscape-font-specification:Lobster Two"
       id="text2994">
      <path
         d="m 274.86809,534.46558 0,-1.55218 c 0.84777,-0.17454 1.47737,-0.36155 1.88879,-0.56102 0.42388,-0.21194 0.63583,-0.40519 0.63583,-0.57973 l 0,-18.75699 -2.52462,0.35532 -0.26181,-1.90749 c 1.35893,-0.28672 2.86746,-0.5423 4.52561,-0.76674 1.65814,-0.23685 3.40979,-0.35529 5.25495,-0.35531 1.77034,2e-5 3.27264,0.14339 4.50691,0.43012 1.23425,0.28677 2.23163,0.68572 2.99214,1.19685 0.77296,0.51118 1.32775,1.11584 1.66438,1.81399 0.34907,0.68572 0.52361,1.42752 0.52363,2.2254 -2e-5,0.8478 -0.13093,1.63323 -0.39272,2.35632 -0.24936,0.71065 -0.60468,1.35894 -1.06595,1.94489 -0.44884,0.57351 -0.9974,1.08466 -1.64568,1.53347 -0.63584,0.43637 -1.34024,0.79168 -2.1132,1.06595 l 5.98428,7.83567 c 0.19946,0.26182 0.38023,0.47376 0.54233,0.63583 0.17452,0.16208 0.36153,0.28675 0.56103,0.37402 0.21192,0.0748 0.45503,0.11844 0.72933,0.1309 0.28672,0.0125 0.64204,10e-6 1.06595,-0.0374 l 0.29922,1.55218 c -0.41145,0.13714 -0.89767,0.28674 -1.45867,0.44882 -0.54858,0.1496 -1.09714,0.29298 -1.64568,0.43012 -0.53611,0.12467 -1.04104,0.23064 -1.51477,0.31791 -0.47378,0.0873 -0.82909,0.13091 -1.06595,0.13091 -0.36157,0 -0.71689,-0.0997 -1.06595,-0.29922 -0.33664,-0.19947 -0.59221,-0.44258 -0.76674,-0.72933 l -5.27365,-10.09848 c -0.0997,0.0125 -0.20572,0.0187 -0.31791,0.0187 l -0.31792,0 c -0.32416,10e-6 -0.64831,-0.0124 -0.97244,-0.0374 -0.32416,-0.0374 -0.66078,-0.0935 -1.00985,-0.16831 l 0,8.3593 c -1e-5,0.14961 0.19323,0.33662 0.57973,0.56103 0.38647,0.21194 1.03477,0.40518 1.94489,0.57972 l 0,1.55218 -10.28549,0 m 8.63981,-21.99224 c -0.13715,2e-5 -0.28052,0.006 -0.43012,0.0187 -0.13715,2e-5 -0.28676,2e-5 -0.44882,0 l 0,8.67721 c 0.3366,0.0623 0.62959,0.0997 0.87894,0.1122 0.24933,0.0125 0.51115,0.0187 0.78544,0.0187 0.79789,2e-5 1.47735,-0.10595 2.03839,-0.31791 0.56102,-0.2244 1.01607,-0.53608 1.36517,-0.93504 0.36153,-0.41141 0.62335,-0.90387 0.78543,-1.47737 0.17453,-0.58595 0.2618,-1.24671 0.26182,-1.9823 -2e-5,-0.53607 -0.0748,-1.05346 -0.22441,-1.55217 -0.13716,-0.49867 -0.4052,-0.93502 -0.80414,-1.30906 -0.3865,-0.38647 -0.92259,-0.69191 -1.60828,-0.91635 -0.67324,-0.22438 -1.53971,-0.33659 -2.59942,-0.33661"
         style="font-weight:bold;font-family:Gentium Book Basic;-inkscape-font-specification:Gentium Book Basic Bold"
         id="path3015" />
      <path
         d="m 298.95483,534.46558 0,-1.55218 c 0.84777,-0.17454 1.4649,-0.36155 1.85139,-0.56102 0.38648,-0.21194 0.57972,-0.40519 0.57972,-0.57973 l 0,-9.27564 c 0,-0.63582 -0.006,-1.14697 -0.0187,-1.53347 0,-0.39894 -0.0686,-0.70439 -0.20571,-0.91634 -0.13714,-0.2244 -0.37402,-0.38647 -0.71063,-0.48623 -0.33662,-0.0997 -0.83531,-0.18076 -1.49607,-0.24311 l 0,-1.49607 c 1.17192,-0.14959 2.25033,-0.32413 3.23525,-0.52362 0.98491,-0.21193 1.93865,-0.47374 2.86124,-0.78544 l 1.38386,0 0,15.25992 c -10e-6,0.14961 0.17453,0.33662 0.52363,0.56103 0.36154,0.21194 0.99737,0.40518 1.90749,0.57972 l 0,1.55218 -9.91147,0 m 8.22839,-23.58182 c -1e-5,0.44885 -0.0873,0.85403 -0.26182,1.21556 -0.17455,0.36157 -0.41766,0.67325 -0.72933,0.93504 -0.31169,0.24937 -0.67947,0.44261 -1.10335,0.57973 -0.41143,0.13716 -0.86648,0.20573 -1.36517,0.20571 -0.37402,2e-5 -0.73557,-0.0374 -1.08465,-0.1122 -0.33662,-0.0872 -0.64207,-0.21816 -0.91634,-0.39272 -0.27428,-0.18699 -0.49246,-0.41763 -0.65453,-0.69193 -0.16208,-0.27426 -0.24312,-0.59841 -0.24311,-0.97245 -1e-5,-0.4488 0.0873,-0.85398 0.26181,-1.21556 0.187,-0.36152 0.43635,-0.66697 0.74803,-0.91634 0.31168,-0.24932 0.67323,-0.44256 1.08466,-0.57973 0.42388,-0.13711 0.87893,-0.20568 1.36516,-0.20571 0.36154,3e-5 0.71686,0.0437 1.06595,0.13091 0.34908,0.0748 0.65452,0.1995 0.91634,0.37402 0.27427,0.17456 0.49245,0.39897 0.65453,0.67323 0.17454,0.26183 0.26181,0.58598 0.26182,0.97244"
         style="font-weight:bold;font-family:Gentium Book Basic;-inkscape-font-specification:Gentium Book Basic Bold"
         id="path3017" />
      <path
         d="m 322.06912,523.24505 c -10e-6,-0.61089 -0.0748,-1.19061 -0.22441,-1.73919 -0.14962,-0.54854 -0.3678,-1.0223 -0.65453,-1.42126 -0.28676,-0.41141 -0.64831,-0.73556 -1.08465,-0.97245 -0.4239,-0.23686 -0.91636,-0.3553 -1.47737,-0.35532 -0.31169,2e-5 -0.61714,0.0686 -0.91635,0.20571 -0.29922,0.13716 -0.5735,0.3491 -0.82284,0.63583 -0.23688,0.2743 -0.43012,0.62338 -0.57972,1.04725 -0.14962,0.4239 -0.22442,0.92259 -0.22441,1.49607 -10e-6,0.62338 0.0623,1.20934 0.187,1.75789 0.13714,0.5361 0.34285,1.00362 0.61713,1.40256 0.28674,0.39896 0.64829,0.71688 1.08466,0.95375 0.43634,0.23688 0.95373,0.35532 1.55217,0.35532 0.36154,0 0.69815,-0.0686 1.00985,-0.20571 0.31167,-0.13714 0.57971,-0.34285 0.80413,-0.61713 0.2244,-0.27427 0.39894,-0.62336 0.52363,-1.04725 0.13713,-0.42388 0.2057,-0.92257 0.20571,-1.49607 m -1.72048,12.23037 c -1.2218,-0.16207 -2.33762,-0.36778 -3.34746,-0.61713 -0.48623,0.36155 -0.86648,0.6857 -1.14075,0.97245 -0.26182,0.29921 -0.4613,0.56103 -0.59843,0.78544 -0.13715,0.23687 -0.22442,0.45505 -0.26182,0.65453 -0.0249,0.19947 -0.0374,0.38648 -0.0374,0.56103 0,0.38648 0.14337,0.75426 0.43012,1.10335 0.28674,0.34908 0.6857,0.65452 1.19686,0.91634 0.52362,0.27427 1.14075,0.48622 1.85139,0.63583 0.72309,0.16207 1.50852,0.24311 2.35631,0.24311 0.69815,0 1.29035,-0.0873 1.77658,-0.26181 0.49868,-0.16208 0.90386,-0.38649 1.21556,-0.67323 0.31167,-0.27429 0.53608,-0.5922 0.67323,-0.95375 0.14959,-0.34908 0.2244,-0.7044 0.22441,-1.06595 -10e-6,-0.19948 -0.0499,-0.41142 -0.14961,-0.63583 -0.0997,-0.21194 -0.30546,-0.42389 -0.61712,-0.63583 -0.29923,-0.19948 -0.73559,-0.39272 -1.30907,-0.57972 -0.56103,-0.17455 -1.3153,-0.32415 -2.2628,-0.44883 m 6.58271,-12.99711 c -2e-5,0.95999 -0.21196,1.83893 -0.63583,2.63682 -0.41144,0.78545 -0.9787,1.46492 -1.70178,2.0384 -0.71065,0.56103 -1.54596,1.00362 -2.50592,1.32776 -0.94752,0.31169 -1.95737,0.46753 -3.02954,0.46753 l -0.22441,0 c -0.43637,0.42389 -0.70441,0.7605 -0.80414,1.00984 -0.0997,0.23689 -0.14962,0.39273 -0.14961,0.46753 -10e-6,0.0997 0.0249,0.19948 0.0748,0.29921 0.0623,0.0873 0.22441,0.18078 0.48623,0.28051 0.2618,0.0997 0.66075,0.20572 1.19685,0.31792 0.54855,0.0997 1.30905,0.21194 2.28151,0.33661 1.49606,0.19948 2.73655,0.43013 3.72148,0.69194 0.98489,0.24934 1.7641,0.56102 2.33761,0.93504 0.58594,0.36155 0.99112,0.79167 1.21555,1.29036 0.23686,0.49869 0.3553,1.08465 0.35532,1.75788 -2e-5,0.56103 -0.13716,1.12829 -0.41142,1.70178 -0.2743,0.57349 -0.64831,1.12829 -1.12205,1.66438 -0.47377,0.54856 -1.0348,1.05971 -1.68308,1.53348 -0.64831,0.47374 -1.35271,0.88516 -2.1132,1.23425 -0.74805,0.36155 -1.53349,0.64206 -2.35631,0.84154 -0.82285,0.21194 -1.64569,0.31791 -2.46852,0.31792 -0.67324,-10e-6 -1.37764,-0.0436 -2.1132,-0.13091 -0.72311,-0.0748 -1.43997,-0.19948 -2.1506,-0.37402 -0.69817,-0.17455 -1.36517,-0.39896 -2.00099,-0.67323 -0.62337,-0.26182 -1.17816,-0.58597 -1.66438,-0.97244 -0.47376,-0.37403 -0.85401,-0.80415 -1.14076,-1.29036 -0.27428,-0.47376 -0.41142,-1.01609 -0.41142,-1.62698 0,-0.29922 0.0686,-0.60467 0.20571,-0.91634 0.13714,-0.31169 0.37402,-0.6483 0.71064,-1.00985 0.34908,-0.34909 0.8166,-0.72934 1.40256,-1.14076 0.59843,-0.41142 1.3527,-0.8727 2.26281,-1.38386 -0.6857,-0.27428 -1.20933,-0.56103 -1.57087,-0.86024 -0.36156,-0.29921 -0.54233,-0.59843 -0.54233,-0.89764 0,-0.29922 0.28675,-0.78544 0.86024,-1.45867 0.57349,-0.6857 1.49607,-1.4649 2.76773,-2.33761 -0.71064,-0.19947 -1.36517,-0.46128 -1.96359,-0.78544 -0.58597,-0.33661 -1.09089,-0.72933 -1.51477,-1.17816 -0.41142,-0.46128 -0.73557,-0.97243 -0.97245,-1.53347 -0.22441,-0.57348 -0.33662,-1.19061 -0.33661,-1.85139 -10e-6,-0.91009 0.23064,-1.77033 0.69193,-2.58072 0.46128,-0.82282 1.07841,-1.53345 1.85139,-2.1319 0.77296,-0.61088 1.6706,-1.09087 2.69292,-1.43997 1.03478,-0.36153 2.12566,-0.5423 3.27266,-0.54232 0.9101,2e-5 1.75164,0.12469 2.52462,0.37402 0.78542,0.23689 1.48982,0.56727 2.1132,0.99114 0.49867,-0.0748 0.99113,-0.16829 1.47737,-0.28051 0.4862,-0.12466 0.94749,-0.24933 1.38386,-0.37402 0.43634,-0.13712 0.83529,-0.26179 1.19686,-0.37402 0.36153,-0.12465 0.66698,-0.23686 0.91634,-0.33661 l 0.56103,0.74803 c -0.025,0.12469 -0.0811,0.28677 -0.16831,0.48623 -0.0748,0.18702 -0.16209,0.3865 -0.26181,0.59843 -0.0998,0.21195 -0.20573,0.4239 -0.31792,0.63583 -0.11222,0.19949 -0.21819,0.37403 -0.31791,0.52362 -0.41144,0.0624 -0.82909,0.12469 -1.25296,0.18701 -0.42391,0.0499 -0.89143,0.0873 -1.40257,0.1122 0.49868,0.82286 0.74802,1.71426 0.74804,2.67423"
         style="font-weight:bold;font-family:Gentium Book Basic;-inkscape-font-specification:Gentium Book Basic Bold"
         id="path3019" />
      <path
         d="m 338.00227,531.47343 c 0.187,10e-6 0.39271,-0.0187 0.61713,-0.0561 0.2244,-0.0374 0.47375,-0.11843 0.74803,-0.24311 0.28674,-0.13714 0.61089,-0.32414 0.97245,-0.56103 0.36154,-0.23687 0.77296,-0.55478 1.23426,-0.95374 l 0,-3.90849 c -0.66078,0.11222 -1.2218,0.21819 -1.68308,0.31792 -0.44883,0.0997 -0.82908,0.20572 -1.14075,0.31791 -0.31169,0.0997 -0.57351,0.21196 -0.78544,0.33662 -0.19949,0.12468 -0.37403,0.26182 -0.52363,0.41142 -0.32415,0.32416 -0.58596,0.66077 -0.78543,1.00985 -0.19949,0.34909 -0.29922,0.77921 -0.29922,1.29036 0,0.39896 0.0561,0.72934 0.16831,0.99115 0.1122,0.26181 0.24934,0.47375 0.41142,0.63583 0.16207,0.14961 0.33661,0.25558 0.52362,0.31791 0.19947,0.0623 0.38025,0.0935 0.54233,0.0935 m 11.48234,0.71064 c -0.52364,0.36155 -1.0909,0.71687 -1.70178,1.06595 -0.59844,0.33662 -1.1844,0.63583 -1.75788,0.89764 -0.56104,0.26181 -1.0722,0.47376 -1.53347,0.63583 -0.46131,0.16208 -0.81662,0.24311 -1.06595,0.24311 -0.47377,0 -0.87896,-0.25558 -1.21556,-0.76673 -0.33663,-0.52363 -0.54234,-1.23426 -0.61713,-2.1319 -0.56104,0.56102 -1.1283,1.02855 -1.70178,1.40256 -0.56104,0.37402 -1.1096,0.67323 -1.64568,0.89764 -0.52363,0.22441 -1.02855,0.38026 -1.51477,0.46753 -0.48623,0.0873 -0.92882,0.1309 -1.32776,0.1309 -0.54857,0 -1.08466,-0.0935 -1.60828,-0.28051 -0.51116,-0.18701 -0.97245,-0.46752 -1.38386,-0.84154 -0.41143,-0.37402 -0.74181,-0.83531 -0.99115,-1.38387 -0.24935,-0.54855 -0.37402,-1.18438 -0.37402,-1.90749 0,-0.81036 0.14961,-1.50229 0.44882,-2.07579 0.29922,-0.58596 0.67947,-1.10958 1.14076,-1.57088 0.29921,-0.2992 0.64206,-0.58595 1.02855,-0.86024 0.39894,-0.28674 0.9288,-0.56102 1.58957,-0.82284 0.66076,-0.2618 1.49606,-0.51738 2.50592,-0.76673 1.00984,-0.24934 2.2815,-0.49245 3.81498,-0.72934 l 0,-2.0758 c -10e-6,-0.374 -0.0374,-0.71685 -0.11221,-1.02854 -0.0623,-0.32414 -0.18078,-0.59842 -0.35531,-0.82284 -0.16209,-0.2244 -0.3865,-0.39894 -0.67324,-0.52363 -0.28675,-0.13712 -0.64207,-0.20569 -1.06595,-0.20571 -0.26182,2e-5 -0.52986,0.0561 -0.80413,0.16831 -0.26182,0.0997 -0.4987,0.24936 -0.71064,0.44882 -0.19948,0.19949 -0.36156,0.44884 -0.48622,0.74804 -0.11221,0.28676 -0.14961,0.61714 -0.11221,0.99114 0.0125,0.0748 -0.0997,0.17456 -0.33661,0.29922 -0.23689,0.11222 -0.54233,0.23689 -0.91634,0.37402 -0.36156,0.12468 -0.76675,0.24935 -1.21556,0.37401 -0.43636,0.12469 -0.86025,0.23689 -1.27166,0.33662 -0.39896,0.0873 -0.75427,0.15585 -1.06595,0.20571 -0.31169,0.0499 -0.5174,0.0624 -0.61713,0.0374 l -0.44882,-1.10335 c 0.31168,-0.78543 0.7979,-1.50853 1.45867,-2.1693 0.66076,-0.67322 1.43996,-1.25295 2.33761,-1.73919 0.89763,-0.49867 1.87631,-0.88515 2.93604,-1.15945 1.07217,-0.28673 2.16929,-0.4301 3.29135,-0.43012 0.9101,2e-5 1.69553,0.12469 2.35631,0.37402 0.66075,0.23689 1.20308,0.56727 1.62698,0.99114 0.42387,0.41144 0.73555,0.90389 0.93504,1.47737 0.19946,0.56104 0.2992,1.15947 0.29922,1.79529 l 0,8.4902 c -2e-5,0.52363 0.0686,0.89764 0.20571,1.12205 0.13712,0.22442 0.31789,0.33662 0.54232,0.33662 0.0873,0 0.17453,-0.006 0.26181,-0.0187 0.0873,-0.0125 0.19323,-0.0374 0.31792,-0.0748 0.12465,-0.0374 0.26803,-0.0873 0.43012,-0.1496 0.17452,-0.0748 0.38647,-0.16207 0.63583,-0.26182 l 0.46752,1.58958"
         style="font-weight:bold;font-family:Gentium Book Basic;-inkscape-font-specification:Gentium Book Basic Bold"
         id="path3021" />
      <path
         d="m 366.61462,530.91241 c -0.81039,0.91011 -1.57089,1.63944 -2.28151,2.188 -0.71064,0.53609 -1.39011,0.94751 -2.03839,1.23426 -0.64831,0.28675 -1.27168,0.47376 -1.87009,0.56103 -0.58597,0.0873 -1.17193,0.1309 -1.75788,0.1309 -1.04726,0 -2.05088,-0.19947 -3.01085,-0.59843 -0.95998,-0.41141 -1.80775,-0.99737 -2.54332,-1.75788 -0.7231,-0.7605 -1.30283,-1.68931 -1.73918,-2.78643 -0.43635,-1.09711 -0.65453,-2.3376 -0.65453,-3.72148 0,-1.34645 0.24934,-2.60564 0.74804,-3.77757 0.49868,-1.17191 1.19685,-2.18799 2.09449,-3.04825 0.91011,-0.87269 1.99476,-1.55839 3.25396,-2.0571 1.25918,-0.51113 2.65551,-0.76671 4.189,-0.76673 0.4114,2e-5 0.89139,0.0374 1.43996,0.1122 0.54855,0.0624 1.08464,0.1621 1.60828,0.29922 0.53608,0.12469 1.02853,0.28053 1.47737,0.46752 0.4488,0.17456 0.77919,0.37403 0.99115,0.59843 0.0125,0.0997 -0.006,0.293 -0.0561,0.57973 -0.0499,0.27429 -0.12469,0.59844 -0.22441,0.97244 -0.0873,0.36157 -0.19326,0.75428 -0.31791,1.17816 -0.12469,0.41143 -0.24936,0.80415 -0.37402,1.17815 -0.12469,0.37403 -0.24936,0.70441 -0.37402,0.99115 -0.11222,0.28676 -0.20572,0.48623 -0.28051,0.59843 l -1.43997,-0.18701 c -0.23689,-0.74802 -0.48,-1.39009 -0.72933,-1.92619 -0.24936,-0.54855 -0.52364,-1.0036 -0.82284,-1.36517 -0.29923,-0.36153 -0.62961,-0.62958 -0.99115,-0.80413 -0.36156,-0.17453 -0.76675,-0.2618 -1.21556,-0.26182 -0.51116,2e-5 -1.00362,0.11846 -1.47737,0.35532 -0.47376,0.23689 -0.89141,0.61714 -1.25296,1.14075 -0.36155,0.52364 -0.65453,1.20934 -0.87894,2.0571 -0.21195,0.83532 -0.31792,1.86387 -0.31791,3.08565 -10e-6,0.97245 0.1122,1.83892 0.33661,2.59942 0.23688,0.74804 0.56102,1.38387 0.97245,1.90749 0.42388,0.51116 0.91633,0.90388 1.47737,1.17816 0.56102,0.26181 1.17191,0.39272 1.83269,0.39271 0.34907,10e-6 0.69192,-0.0187 1.02854,-0.0561 0.33661,-0.0499 0.69816,-0.1496 1.08466,-0.29921 0.39894,-0.14961 0.83529,-0.36155 1.30906,-0.63583 0.48621,-0.27428 1.05347,-0.63583 1.70178,-1.08465 l 1.10335,1.32776"
         style="font-weight:bold;font-family:Gentium Book Basic;-inkscape-font-specification:Gentium Book Basic Bold"
         id="path3023" />
      <path
         d="m 384.26825,530.91241 c -0.81038,0.91011 -1.57089,1.63944 -2.2815,2.188 -0.71065,0.53609 -1.39012,0.94751 -2.0384,1.23426 -0.64831,0.28675 -1.27167,0.47376 -1.87009,0.56103 -0.58597,0.0873 -1.17193,0.1309 -1.75788,0.1309 -1.04726,0 -2.05087,-0.19947 -3.01084,-0.59843 -0.95999,-0.41141 -1.80776,-0.99737 -2.54332,-1.75788 -0.72311,-0.7605 -1.30283,-1.68931 -1.73919,-2.78643 -0.43635,-1.09711 -0.65453,-2.3376 -0.65453,-3.72148 0,-1.34645 0.24935,-2.60564 0.74804,-3.77757 0.49869,-1.17191 1.19685,-2.18799 2.0945,-3.04825 0.9101,-0.87269 1.99475,-1.55839 3.25395,-2.0571 1.25919,-0.51113 2.65552,-0.76671 4.189,-0.76673 0.41141,2e-5 0.8914,0.0374 1.43997,0.1122 0.54854,0.0624 1.08463,0.1621 1.60827,0.29922 0.53608,0.12469 1.02854,0.28053 1.47737,0.46752 0.44881,0.17456 0.77919,0.37403 0.99115,0.59843 0.0125,0.0997 -0.006,0.293 -0.0561,0.57973 -0.0499,0.27429 -0.12469,0.59844 -0.22441,0.97244 -0.0873,0.36157 -0.19326,0.75428 -0.31792,1.17816 -0.12469,0.41143 -0.24936,0.80415 -0.37402,1.17815 -0.12469,0.37403 -0.24936,0.70441 -0.37401,0.99115 -0.11223,0.28676 -0.20573,0.48623 -0.28052,0.59843 l -1.43997,-0.18701 c -0.23689,-0.74802 -0.48,-1.39009 -0.72933,-1.92619 -0.24936,-0.54855 -0.52364,-1.0036 -0.82284,-1.36517 -0.29923,-0.36153 -0.62961,-0.62958 -0.99115,-0.80413 -0.36156,-0.17453 -0.76674,-0.2618 -1.21555,-0.26182 -0.51117,2e-5 -1.00363,0.11846 -1.47737,0.35532 -0.47377,0.23689 -0.89142,0.61714 -1.25296,1.14075 -0.36156,0.52364 -0.65454,1.20934 -0.87894,2.0571 -0.21195,0.83532 -0.31792,1.86387 -0.31792,3.08565 0,0.97245 0.1122,1.83892 0.33662,2.59942 0.23687,0.74804 0.56102,1.38387 0.97244,1.90749 0.42388,0.51116 0.91634,0.90388 1.47737,1.17816 0.56102,0.26181 1.17191,0.39272 1.83269,0.39271 0.34907,10e-6 0.69192,-0.0187 1.02855,-0.0561 0.3366,-0.0499 0.69815,-0.1496 1.08465,-0.29921 0.39894,-0.14961 0.83529,-0.36155 1.30906,-0.63583 0.48621,-0.27428 1.05347,-0.63583 1.70178,-1.08465 l 1.10335,1.32776"
         style="font-weight:bold;font-family:Gentium Book Basic;-inkscape-font-specification:Gentium Book Basic Bold"
         id="path3025" />
      <path
         d="m 386.02614,534.46558 0,-1.55218 c 0.84777,-0.17454 1.4649,-0.36155 1.85138,-0.56102 0.38649,-0.21194 0.57973,-0.40519 0.57973,-0.57973 l 0,-9.27564 c 0,-0.63582 -0.006,-1.14697 -0.0187,-1.53347 0,-0.39894 -0.0686,-0.70439 -0.20571,-0.91634 -0.13714,-0.2244 -0.37402,-0.38647 -0.71063,-0.48623 -0.33662,-0.0997 -0.83531,-0.18076 -1.49607,-0.24311 l 0,-1.49607 c 1.17192,-0.14959 2.25033,-0.32413 3.23525,-0.52362 0.98491,-0.21193 1.93865,-0.47374 2.86123,-0.78544 l 1.38387,0 0,15.25992 c -10e-6,0.14961 0.17453,0.33662 0.52362,0.56103 0.36154,0.21194 0.99737,0.40518 1.90749,0.57972 l 0,1.55218 -9.91146,0 m 8.22838,-23.58182 c 0,0.44885 -0.0873,0.85403 -0.26181,1.21556 -0.17455,0.36157 -0.41766,0.67325 -0.72933,0.93504 -0.31169,0.24937 -0.67948,0.44261 -1.10335,0.57973 -0.41143,0.13716 -0.86648,0.20573 -1.36517,0.20571 -0.37402,2e-5 -0.73557,-0.0374 -1.08465,-0.1122 -0.33662,-0.0872 -0.64207,-0.21816 -0.91634,-0.39272 -0.27429,-0.18699 -0.49246,-0.41763 -0.65453,-0.69193 -0.16208,-0.27426 -0.24312,-0.59841 -0.24312,-0.97245 0,-0.4488 0.0873,-0.85398 0.26182,-1.21556 0.187,-0.36152 0.43635,-0.66697 0.74803,-0.91634 0.31168,-0.24932 0.67323,-0.44256 1.08465,-0.57973 0.42388,-0.13711 0.87894,-0.20568 1.36517,-0.20571 0.36154,3e-5 0.71686,0.0437 1.06595,0.13091 0.34907,0.0748 0.65452,0.1995 0.91634,0.37402 0.27427,0.17456 0.49245,0.39897 0.65453,0.67323 0.17453,0.26183 0.26181,0.58598 0.26181,0.97244"
         style="font-weight:bold;font-family:Gentium Book Basic;-inkscape-font-specification:Gentium Book Basic Bold"
         id="path3027" />
      <path
         d="m 405.94258,531.97836 c -1e-5,0.52363 -0.0998,0.99115 -0.29922,1.40256 -0.19948,0.39896 -0.46753,0.73557 -0.80414,1.00985 -0.33662,0.26181 -0.72934,0.46129 -1.17815,0.59843 -0.44883,0.14961 -0.92258,0.22441 -1.42127,0.22441 -0.37402,0 -0.74181,-0.0499 -1.10335,-0.14961 -0.36156,-0.0997 -0.6857,-0.25557 -0.97245,-0.46752 -0.27428,-0.21194 -0.49869,-0.48622 -0.67323,-0.82284 -0.16208,-0.33661 -0.24311,-0.7418 -0.24311,-1.21555 0,-0.51116 0.0997,-0.96621 0.29921,-1.36517 0.21194,-0.41141 0.48622,-0.75426 0.82284,-1.02855 0.34908,-0.28674 0.74803,-0.49868 1.19686,-0.63583 0.44882,-0.1496 0.91634,-0.2244 1.40257,-0.22441 0.34907,10e-6 0.69815,0.0499 1.04724,0.14961 0.36155,0.0997 0.6857,0.26182 0.97245,0.48622 0.28674,0.21195 0.51738,0.48623 0.69193,0.82284 0.17454,0.33662 0.26181,0.74181 0.26182,1.21556"
         style="font-weight:bold;font-family:Gentium Book Basic;-inkscape-font-specification:Gentium Book Basic Bold"
         id="path3029" />
      <path
         d="m 425.09229,522.70272 c -2e-5,-1.28411 -0.14963,-2.51837 -0.44882,-3.70277 -0.28677,-1.19684 -0.70442,-2.24409 -1.25296,-3.14175 -0.53611,-0.91009 -1.18441,-1.63319 -1.9449,-2.1693 -0.74804,-0.54854 -1.58335,-0.82282 -2.50591,-0.82284 -0.82285,2e-5 -1.55219,0.21819 -2.18801,0.65453 -0.62337,0.4239 -1.14699,1.04727 -1.57087,1.87009 -0.42389,0.82285 -0.74181,1.8327 -0.95375,3.02954 -0.21195,1.1844 -0.31792,2.5371 -0.31791,4.05809 -10e-6,1.39634 0.15583,2.69917 0.46752,3.90848 0.31168,1.20934 0.73556,2.26282 1.27166,3.16045 0.54855,0.88518 1.18438,1.58335 1.90749,2.0945 0.72309,0.51116 1.49606,0.76674 2.31891,0.76674 0.74802,0 1.43996,-0.19324 2.0758,-0.57973 0.64828,-0.39895 1.20307,-0.99738 1.66438,-1.79528 0.46127,-0.7979 0.82282,-1.80775 1.08465,-3.02955 0.26179,-1.22178 0.3927,-2.65551 0.39272,-4.3012 m 5.32975,-0.33661 c -2e-5,1.13453 -0.1434,2.23164 -0.43012,3.29135 -0.2743,1.05972 -0.66702,2.06334 -1.17816,3.01084 -0.49871,0.93505 -1.09714,1.79529 -1.79528,2.58072 -0.69819,0.77298 -1.47739,1.43997 -2.33761,2.001 -0.84779,0.56103 -1.7579,0.99738 -2.73033,1.30906 -0.95999,0.31168 -1.95737,0.46752 -2.99214,0.46752 -1.59582,0 -3.03579,-0.33038 -4.31991,-0.99114 -1.28413,-0.66077 -2.37501,-1.54594 -3.27265,-2.65553 -0.89765,-1.10958 -1.58958,-2.38747 -2.0758,-3.83368 -0.47376,-1.44619 -0.71063,-2.95473 -0.71063,-4.52561 0,-1.69554 0.27428,-3.31005 0.82284,-4.84353 0.56102,-1.53346 1.34646,-2.87992 2.35631,-4.03939 1.00984,-1.15944 2.21293,-2.08201 3.60927,-2.76773 1.40879,-0.68568 2.96719,-1.02853 4.67522,-1.02855 1.68306,2e-5 3.16667,0.34287 4.45081,1.02855 1.29658,0.67325 2.38123,1.57089 3.25395,2.69292 0.88516,1.12208 1.55215,2.4062 2.001,3.85238 0.4488,1.44622 0.67321,2.92982 0.67323,4.45082"
         style="font-weight:bold;font-family:Gentium Book Basic;-inkscape-font-specification:Gentium Book Basic Bold"
         id="path3031" />
      <path
         d="m 448.7489,517.39167 c 0.0748,0.0499 0.10595,0.22443 0.0935,0.52362 -10e-6,0.28677 -0.0374,0.64832 -0.1122,1.08466 -0.0624,0.43637 -0.14963,0.91635 -0.26182,1.43996 -0.11222,0.51118 -0.23066,1.0161 -0.35531,1.51478 -0.12469,0.48623 -0.2556,0.93505 -0.39272,1.34646 -0.12469,0.41143 -0.23689,0.72934 -0.33662,0.95374 l -1.55217,0 c -0.025,-0.49868 -0.0873,-0.9849 -0.18701,-1.45866 -0.0997,-0.48622 -0.23689,-0.91634 -0.41142,-1.29037 -0.16209,-0.374 -0.3678,-0.67321 -0.61713,-0.89764 -0.24936,-0.23686 -0.5361,-0.3553 -0.86024,-0.35531 -0.22442,10e-6 -0.47377,0.0249 -0.74803,0.0748 -0.26183,0.0374 -0.54857,0.15585 -0.86024,0.35532 -0.3117,0.19949 -0.64208,0.50493 -0.99115,0.91634 -0.34909,0.41143 -0.71688,0.98492 -1.10335,1.72048 l 0,8.4528 c -1e-5,0.18701 0.2618,0.38025 0.78543,0.57973 0.53609,0.19947 1.39009,0.38648 2.56203,0.56102 l 0,1.55218 -10.82782,0 0,-1.55218 c 1.62074,-0.37401 2.43112,-0.75426 2.43112,-1.14075 l 0,-9.57485 c 0,-0.41141 -0.0125,-0.75426 -0.0374,-1.02855 -0.0249,-0.28673 -0.0561,-0.51738 -0.0935,-0.69193 -0.0374,-0.17453 -0.0873,-0.31167 -0.1496,-0.41142 -0.0499,-0.0997 -0.0997,-0.18076 -0.14961,-0.24312 -0.0873,-0.0872 -0.17455,-0.15582 -0.26181,-0.2057 -0.0873,-0.0623 -0.20572,-0.1122 -0.35532,-0.14961 -0.13714,-0.0374 -0.31792,-0.0623 -0.54233,-0.0748 -0.21194,-0.0249 -0.49245,-0.0498 -0.84154,-0.0748 l 0,-1.49607 c 0.77297,-0.0997 1.4275,-0.19323 1.9636,-0.28051 0.54855,-0.0873 1.04724,-0.17453 1.49607,-0.26182 0.44881,-0.0997 0.89763,-0.20569 1.34646,-0.31791 0.44882,-0.12466 0.96621,-0.27426 1.55217,-0.44882 l 0.84154,0.84154 0.24312,2.188 c 0.3366,-0.4114 0.71685,-0.79789 1.14075,-1.15945 0.43634,-0.374 0.89763,-0.69815 1.38386,-0.97245 0.49868,-0.27426 1.01607,-0.49244 1.55218,-0.65453 0.53608,-0.16206 1.07217,-0.24309 1.60827,-0.24311 0.49868,2e-5 1.01607,0.0811 1.55218,0.24311 0.53607,0.16209 1.03476,0.37404 1.49607,0.63583"
         style="font-weight:bold;font-family:Gentium Book Basic;-inkscape-font-specification:Gentium Book Basic Bold"
         id="path3033" />
      <path
         d="m 461.6525,523.24505 c -10e-6,-0.61089 -0.0748,-1.19061 -0.22441,-1.73919 -0.14962,-0.54854 -0.36779,-1.0223 -0.65453,-1.42126 -0.28676,-0.41141 -0.64831,-0.73556 -1.08465,-0.97245 -0.4239,-0.23686 -0.91635,-0.3553 -1.47737,-0.35532 -0.31169,2e-5 -0.61714,0.0686 -0.91634,0.20571 -0.29922,0.13716 -0.5735,0.3491 -0.82284,0.63583 -0.23689,0.2743 -0.43013,0.62338 -0.57973,1.04725 -0.14961,0.4239 -0.22441,0.92259 -0.22441,1.49607 0,0.62338 0.0623,1.20934 0.18701,1.75789 0.13713,0.5361 0.34284,1.00362 0.61713,1.40256 0.28674,0.39896 0.64829,0.71688 1.08465,0.95375 0.43635,0.23688 0.95374,0.35532 1.55217,0.35532 0.36154,0 0.69816,-0.0686 1.00985,-0.20571 0.31167,-0.13714 0.57972,-0.34285 0.80414,-0.61713 0.2244,-0.27427 0.39894,-0.62336 0.52362,-1.04725 0.13713,-0.42388 0.2057,-0.92257 0.20571,-1.49607 m -1.72048,12.23037 c -1.2218,-0.16207 -2.33762,-0.36778 -3.34746,-0.61713 -0.48623,0.36155 -0.86648,0.6857 -1.14075,0.97245 -0.26182,0.29921 -0.46129,0.56103 -0.59843,0.78544 -0.13714,0.23687 -0.22441,0.45505 -0.26181,0.65453 -0.0249,0.19947 -0.0374,0.38648 -0.0374,0.56103 -1e-5,0.38648 0.14337,0.75426 0.43012,1.10335 0.28674,0.34908 0.68569,0.65452 1.19686,0.91634 0.52361,0.27427 1.14074,0.48622 1.85138,0.63583 0.72309,0.16207 1.50853,0.24311 2.35631,0.24311 0.69816,0 1.29035,-0.0873 1.77659,-0.26181 0.49867,-0.16208 0.90386,-0.38649 1.21556,-0.67323 0.31166,-0.27429 0.53607,-0.5922 0.67323,-0.95375 0.14959,-0.34908 0.22439,-0.7044 0.22441,-1.06595 -2e-5,-0.19948 -0.0499,-0.41142 -0.14961,-0.63583 -0.0997,-0.21194 -0.30546,-0.42389 -0.61713,-0.63583 -0.29923,-0.19948 -0.73558,-0.39272 -1.30906,-0.57972 -0.56104,-0.17455 -1.31531,-0.32415 -2.26281,-0.44883 m 6.58271,-12.99711 c -10e-6,0.95999 -0.21196,1.83893 -0.63583,2.63682 -0.41143,0.78545 -0.97869,1.46492 -1.70178,2.0384 -0.71064,0.56103 -1.54595,1.00362 -2.50592,1.32776 -0.94752,0.31169 -1.95736,0.46753 -3.02954,0.46753 l -0.22441,0 c -0.43636,0.42389 -0.70441,0.7605 -0.80414,1.00984 -0.0997,0.23689 -0.14961,0.39273 -0.1496,0.46753 -10e-6,0.0997 0.0249,0.19948 0.0748,0.29921 0.0623,0.0873 0.2244,0.18078 0.48622,0.28051 0.26181,0.0997 0.66076,0.20572 1.19686,0.31792 0.54855,0.0997 1.30905,0.21194 2.28151,0.33661 1.49605,0.19948 2.73654,0.43013 3.72147,0.69194 0.9849,0.24934 1.7641,0.56102 2.33761,0.93504 0.58595,0.36155 0.99113,0.79167 1.21556,1.29036 0.23686,0.49869 0.3553,1.08465 0.35532,1.75788 -2e-5,0.56103 -0.13716,1.12829 -0.41142,1.70178 -0.2743,0.57349 -0.64832,1.12829 -1.12206,1.66438 -0.47377,0.54856 -1.03479,1.05971 -1.68307,1.53348 -0.64832,0.47374 -1.35272,0.88516 -2.1132,1.23425 -0.74805,0.36155 -1.53349,0.64206 -2.35632,0.84154 -0.82285,0.21194 -1.64568,0.31791 -2.46851,0.31792 -0.67324,-10e-6 -1.37764,-0.0436 -2.1132,-0.13091 -0.72311,-0.0748 -1.43998,-0.19948 -2.1506,-0.37402 -0.69817,-0.17455 -1.36517,-0.39896 -2.001,-0.67323 -0.62336,-0.26182 -1.17816,-0.58597 -1.66438,-0.97244 -0.47375,-0.37403 -0.854,-0.80415 -1.14075,-1.29036 -0.27428,-0.47376 -0.41142,-1.01609 -0.41142,-1.62698 0,-0.29922 0.0686,-0.60467 0.20571,-0.91634 0.13714,-0.31169 0.37402,-0.6483 0.71063,-1.00985 0.34909,-0.34909 0.81661,-0.72934 1.40257,-1.14076 0.59842,-0.41142 1.35269,-0.8727 2.26281,-1.38386 -0.68571,-0.27428 -1.20933,-0.56103 -1.57088,-0.86024 -0.36155,-0.29921 -0.54233,-0.59843 -0.54232,-0.89764 -10e-6,-0.29922 0.28674,-0.78544 0.86024,-1.45867 0.57349,-0.6857 1.49606,-1.4649 2.76773,-2.33761 -0.71064,-0.19947 -1.36517,-0.46128 -1.96359,-0.78544 -0.58597,-0.33661 -1.09089,-0.72933 -1.51478,-1.17816 -0.41142,-0.46128 -0.73557,-0.97243 -0.97244,-1.53347 -0.22441,-0.57348 -0.33662,-1.19061 -0.33662,-1.85139 0,-0.91009 0.23064,-1.77033 0.69193,-2.58072 0.46129,-0.82282 1.07842,-1.53345 1.85139,-2.1319 0.77297,-0.61088 1.67061,-1.09087 2.69293,-1.43997 1.03477,-0.36153 2.12566,-0.5423 3.27265,-0.54232 0.9101,2e-5 1.75164,0.12469 2.52462,0.37402 0.78543,0.23689 1.48983,0.56727 2.1132,0.99114 0.49868,-0.0748 0.99113,-0.16829 1.47737,-0.28051 0.48621,-0.12466 0.9475,-0.24933 1.38387,-0.37402 0.43633,-0.13712 0.83529,-0.26179 1.19685,-0.37402 0.36154,-0.12465 0.66698,-0.23686 0.91635,-0.33661 l 0.56102,0.74803 c -0.025,0.12469 -0.0811,0.28677 -0.1683,0.48623 -0.0748,0.18702 -0.1621,0.3865 -0.26182,0.59843 -0.0997,0.21195 -0.20573,0.4239 -0.31791,0.63583 -0.11223,0.19949 -0.2182,0.37403 -0.31792,0.52362 -0.41143,0.0624 -0.82909,0.12469 -1.25296,0.18701 -0.4239,0.0499 -0.89142,0.0873 -1.40256,0.1122 0.49867,0.82286 0.74802,1.71426 0.74803,2.67423"
         style="font-weight:bold;font-family:Gentium Book Basic;-inkscape-font-specification:Gentium Book Basic Bold"
         id="path3035" />
    </g>
    <text
       xml:space="preserve"
       style="font-size:40px;font-style:normal;font-variant:normal;font-weight:normal;font-stretch:normal;line-height:125%;letter-spacing:0px;word-spacing:0px;fill:#000000;fill-opacity:1;stroke:none;font-family:Lobster Two;-inkscape-font-specification:Lobster Two"
       x="295"
       y="644.50507"
       id="text3010"
       sodipodi:linespacing="125%"><tspan
         sodipodi:role="line"
         id="tspan3012"
         x="295"
         y="644.50507" /></text>
  </g>
</svg>
