  0
SECTION
  2
BLOCKS
  0
ENDSEC
  0
SECTION
  2
ENTITIES
  0
LINE
  8
0
 10
-57.5
 11
-57.5
 20
-59.1
 21
58.9
  0
LINE
  8
0
 10
-57.5
 11
-57.429
 20
58.9
 21
60.248
  0
LINE
  8
0
 10
-57.429
 11
-57.218
 20
60.248
 21
61.582
  0
LINE
  8
0
 10
-57.218
 11
-56.869
 20
61.582
 21
62.886
  0
LINE
  8
0
 10
-56.869
 11
-56.385
 20
62.886
 21
64.147
  0
LINE
  8
0
 10
-56.385
 11
-55.772
 20
64.147
 21
65.35
  0
LINE
  8
0
 10
-55.772
 11
-55.036
 20
65.35
 21
66.482
  0
LINE
  8
0
 10
-55.036
 11
-54.187
 20
66.482
 21
67.532
  0
LINE
  8
0
 10
-54.187
 11
-53.232
 20
67.532
 21
68.487
  0
LINE
  8
0
 10
-53.232
 11
-52.182
 20
68.487
 21
69.336
  0
LINE
  8
0
 10
-52.182
 11
-51.05
 20
69.336
 21
70.072
  0
LINE
  8
0
 10
-51.05
 11
-49.847
 20
70.072
 21
70.685
  0
LINE
  8
0
 10
-49.847
 11
-48.586
 20
70.685
 21
71.169
  0
LINE
  8
0
 10
-48.586
 11
-47.282
 20
71.169
 21
71.518
  0
LINE
  8
0
 10
-47.282
 11
-45.948
 20
71.518
 21
71.729
  0
LINE
  8
0
 10
-45.948
 11
-44.6
 20
71.729
 21
71.8
  0
LINE
  8
0
 10
-44.6
 11
44.4
 20
71.8
 21
71.8
  0
LINE
  8
0
 10
44.4
 11
45.748
 20
71.8
 21
71.729
  0
LINE
  8
0
 10
45.748
 11
47.082
 20
71.729
 21
71.518
  0
LINE
  8
0
 10
47.082
 11
48.386
 20
71.518
 21
71.169
  0
LINE
  8
0
 10
48.386
 11
49.647
 20
71.169
 21
70.685
  0
LINE
  8
0
 10
49.647
 11
50.85
 20
70.685
 21
70.072
  0
LINE
  8
0
 10
50.85
 11
51.982
 20
70.072
 21
69.336
  0
LINE
  8
0
 10
51.982
 11
53.032
 20
69.336
 21
68.487
  0
LINE
  8
0
 10
53.032
 11
53.987
 20
68.487
 21
67.532
  0
LINE
  8
0
 10
53.987
 11
54.836
 20
67.532
 21
66.482
  0
LINE
  8
0
 10
54.836
 11
55.572
 20
66.482
 21
65.35
  0
LINE
  8
0
 10
55.572
 11
56.185
 20
65.35
 21
64.147
  0
LINE
  8
0
 10
56.185
 11
56.669
 20
64.147
 21
62.886
  0
LINE
  8
0
 10
56.669
 11
57.018
 20
62.886
 21
61.582
  0
LINE
  8
0
 10
57.018
 11
57.229
 20
61.582
 21
60.248
  0
LINE
  8
0
 10
57.229
 11
57.3
 20
60.248
 21
58.9
  0
LINE
  8
0
 10
57.3
 11
57.3
 20
58.9
 21
-59.1
  0
LINE
  8
0
 10
57.3
 11
57.229
 20
-59.1
 21
-60.448
  0
LINE
  8
0
 10
57.229
 11
57.018
 20
-60.448
 21
-61.782
  0
LINE
  8
0
 10
57.018
 11
56.669
 20
-61.782
 21
-63.086
  0
LINE
  8
0
 10
56.669
 11
56.185
 20
-63.086
 21
-64.347
  0
LINE
  8
0
 10
56.185
 11
55.572
 20
-64.347
 21
-65.55
  0
LINE
  8
0
 10
55.572
 11
54.836
 20
-65.55
 21
-66.682
  0
LINE
  8
0
 10
54.836
 11
53.987
 20
-66.682
 21
-67.732
  0
LINE
  8
0
 10
53.987
 11
53.032
 20
-67.732
 21
-68.687
  0
LINE
  8
0
 10
53.032
 11
51.982
 20
-68.687
 21
-69.536
  0
LINE
  8
0
 10
51.982
 11
50.85
 20
-69.536
 21
-70.272
  0
LINE
  8
0
 10
50.85
 11
49.647
 20
-70.272
 21
-70.885
  0
LINE
  8
0
 10
49.647
 11
48.386
 20
-70.885
 21
-71.369
  0
LINE
  8
0
 10
48.386
 11
47.082
 20
-71.369
 21
-71.718
  0
LINE
  8
0
 10
47.082
 11
45.748
 20
-71.718
 21
-71.929
  0
LINE
  8
0
 10
45.748
 11
44.4
 20
-71.929
 21
-72
  0
LINE
  8
0
 10
44.4
 11
-44.6
 20
-72
 21
-72
  0
LINE
  8
0
 10
-44.6
 11
-45.948
 20
-72
 21
-71.929
  0
LINE
  8
0
 10
-45.948
 11
-47.282
 20
-71.929
 21
-71.718
  0
LINE
  8
0
 10
-47.282
 11
-48.586
 20
-71.718
 21
-71.369
  0
LINE
  8
0
 10
-48.586
 11
-49.847
 20
-71.369
 21
-70.885
  0
LINE
  8
0
 10
-49.847
 11
-51.05
 20
-70.885
 21
-70.272
  0
LINE
  8
0
 10
-51.05
 11
-52.182
 20
-70.272
 21
-69.536
  0
LINE
  8
0
 10
-52.182
 11
-53.232
 20
-69.536
 21
-68.687
  0
LINE
  8
0
 10
-53.232
 11
-54.187
 20
-68.687
 21
-67.732
  0
LINE
  8
0
 10
-54.187
 11
-55.036
 20
-67.732
 21
-66.682
  0
LINE
  8
0
 10
-55.036
 11
-55.772
 20
-66.682
 21
-65.55
  0
LINE
  8
0
 10
-55.772
 11
-56.385
 20
-65.55
 21
-64.347
  0
LINE
  8
0
 10
-56.385
 11
-56.869
 20
-64.347
 21
-63.086
  0
LINE
  8
0
 10
-56.869
 11
-57.218
 20
-63.086
 21
-61.782
  0
LINE
  8
0
 10
-57.218
 11
-57.429
 20
-61.782
 21
-60.448
  0
LINE
  8
0
 10
-57.429
 11
-57.5
 20
-60.448
 21
-59.1
  0
LINE
  8
0
 10
-51.655
 11
-51.612
 20
-64.905
 21
-64.581
  0
LINE
  8
0
 10
-51.612
 11
-51.488
 20
-64.581
 21
-64.28
  0
LINE
  8
0
 10
-51.488
 11
-51.289
 20
-64.28
 21
-64.021
  0
LINE
  8
0
 10
-51.289
 11
-51.03
 20
-64.021
 21
-63.822
  0
LINE
  8
0
 10
-51.03
 11
-50.729
 20
-63.822
 21
-63.698
  0
LINE
  8
0
 10
-50.729
 11
-50.405
 20
-63.698
 21
-63.655
  0
LINE
  8
0
 10
-50.405
 11
-50.081
 20
-63.655
 21
-63.698
  0
LINE
  8
0
 10
-50.081
 11
-49.78
 20
-63.698
 21
-63.822
  0
LINE
  8
0
 10
-49.78
 11
-49.521
 20
-63.822
 21
-64.021
  0
LINE
  8
0
 10
-49.521
 11
-49.322
 20
-64.021
 21
-64.28
  0
LINE
  8
0
 10
-49.322
 11
-49.198
 20
-64.28
 21
-64.581
  0
LINE
  8
0
 10
-49.198
 11
-49.155
 20
-64.581
 21
-64.905
  0
LINE
  8
0
 10
-49.155
 11
-49.198
 20
-64.905
 21
-65.229
  0
LINE
  8
0
 10
-49.198
 11
-49.322
 20
-65.229
 21
-65.53
  0
LINE
  8
0
 10
-49.322
 11
-49.521
 20
-65.53
 21
-65.789
  0
LINE
  8
0
 10
-49.521
 11
-49.78
 20
-65.789
 21
-65.988
  0
LINE
  8
0
 10
-49.78
 11
-50.081
 20
-65.988
 21
-66.112
  0
LINE
  8
0
 10
-50.081
 11
-50.405
 20
-66.112
 21
-66.155
  0
LINE
  8
0
 10
-50.405
 11
-50.729
 20
-66.155
 21
-66.112
  0
LINE
  8
0
 10
-50.729
 11
-51.03
 20
-66.112
 21
-65.988
  0
LINE
  8
0
 10
-51.03
 11
-51.289
 20
-65.988
 21
-65.789
  0
LINE
  8
0
 10
-51.289
 11
-51.488
 20
-65.789
 21
-65.53
  0
LINE
  8
0
 10
-51.488
 11
-51.612
 20
-65.53
 21
-65.229
  0
LINE
  8
0
 10
-51.612
 11
-51.655
 20
-65.229
 21
-64.905
  0
LINE
  8
0
 10
-51.655
 11
-51.612
 20
65.105
 21
65.429
  0
LINE
  8
0
 10
-51.612
 11
-51.488
 20
65.429
 21
65.73
  0
LINE
  8
0
 10
-51.488
 11
-51.289
 20
65.73
 21
65.989
  0
LINE
  8
0
 10
-51.289
 11
-51.03
 20
65.989
 21
66.188
  0
LINE
  8
0
 10
-51.03
 11
-50.729
 20
66.188
 21
66.312
  0
LINE
  8
0
 10
-50.729
 11
-50.405
 20
66.312
 21
66.355
  0
LINE
  8
0
 10
-50.405
 11
-50.081
 20
66.355
 21
66.312
  0
LINE
  8
0
 10
-50.081
 11
-49.78
 20
66.312
 21
66.188
  0
LINE
  8
0
 10
-49.78
 11
-49.521
 20
66.188
 21
65.989
  0
LINE
  8
0
 10
-49.521
 11
-49.322
 20
65.989
 21
65.73
  0
LINE
  8
0
 10
-49.322
 11
-49.198
 20
65.73
 21
65.429
  0
LINE
  8
0
 10
-49.198
 11
-49.155
 20
65.429
 21
65.105
  0
LINE
  8
0
 10
-49.155
 11
-49.198
 20
65.105
 21
64.781
  0
LINE
  8
0
 10
-49.198
 11
-49.322
 20
64.781
 21
64.48
  0
LINE
  8
0
 10
-49.322
 11
-49.521
 20
64.48
 21
64.221
  0
LINE
  8
0
 10
-49.521
 11
-49.78
 20
64.221
 21
64.022
  0
LINE
  8
0
 10
-49.78
 11
-50.081
 20
64.022
 21
63.898
  0
LINE
  8
0
 10
-50.081
 11
-50.405
 20
63.898
 21
63.855
  0
LINE
  8
0
 10
-50.405
 11
-50.729
 20
63.855
 21
63.898
  0
LINE
  8
0
 10
-50.729
 11
-51.03
 20
63.898
 21
64.022
  0
LINE
  8
0
 10
-51.03
 11
-51.289
 20
64.022
 21
64.221
  0
LINE
  8
0
 10
-51.289
 11
-51.488
 20
64.221
 21
64.48
  0
LINE
  8
0
 10
-51.488
 11
-51.612
 20
64.48
 21
64.781
  0
LINE
  8
0
 10
-51.612
 11
-51.655
 20
64.781
 21
65.105
  0
LINE
  8
0
 10
49.355
 11
49.398
 20
-64.905
 21
-64.581
  0
LINE
  8
0
 10
49.398
 11
49.522
 20
-64.581
 21
-64.28
  0
LINE
  8
0
 10
49.522
 11
49.721
 20
-64.28
 21
-64.021
  0
LINE
  8
0
 10
49.721
 11
49.98
 20
-64.021
 21
-63.822
  0
LINE
  8
0
 10
49.98
 11
50.281
 20
-63.822
 21
-63.698
  0
LINE
  8
0
 10
50.281
 11
50.605
 20
-63.698
 21
-63.655
  0
LINE
  8
0
 10
50.605
 11
50.929
 20
-63.655
 21
-63.698
  0
LINE
  8
0
 10
50.929
 11
51.23
 20
-63.698
 21
-63.822
  0
LINE
  8
0
 10
51.23
 11
51.489
 20
-63.822
 21
-64.021
  0
LINE
  8
0
 10
51.489
 11
51.688
 20
-64.021
 21
-64.28
  0
LINE
  8
0
 10
51.688
 11
51.812
 20
-64.28
 21
-64.581
  0
LINE
  8
0
 10
51.812
 11
51.855
 20
-64.581
 21
-64.905
  0
LINE
  8
0
 10
51.855
 11
51.812
 20
-64.905
 21
-65.229
  0
LINE
  8
0
 10
51.812
 11
51.688
 20
-65.229
 21
-65.53
  0
LINE
  8
0
 10
51.688
 11
51.489
 20
-65.53
 21
-65.789
  0
LINE
  8
0
 10
51.489
 11
51.23
 20
-65.789
 21
-65.988
  0
LINE
  8
0
 10
51.23
 11
50.929
 20
-65.988
 21
-66.112
  0
LINE
  8
0
 10
50.929
 11
50.605
 20
-66.112
 21
-66.155
  0
LINE
  8
0
 10
50.605
 11
50.281
 20
-66.155
 21
-66.112
  0
LINE
  8
0
 10
50.281
 11
49.98
 20
-66.112
 21
-65.988
  0
LINE
  8
0
 10
49.98
 11
49.721
 20
-65.988
 21
-65.789
  0
LINE
  8
0
 10
49.721
 11
49.522
 20
-65.789
 21
-65.53
  0
LINE
  8
0
 10
49.522
 11
49.398
 20
-65.53
 21
-65.229
  0
LINE
  8
0
 10
49.398
 11
49.355
 20
-65.229
 21
-64.905
  0
LINE
  8
0
 10
49.355
 11
49.398
 20
65.105
 21
65.429
  0
LINE
  8
0
 10
49.398
 11
49.522
 20
65.429
 21
65.73
  0
LINE
  8
0
 10
49.522
 11
49.721
 20
65.73
 21
65.989
  0
LINE
  8
0
 10
49.721
 11
49.98
 20
65.989
 21
66.188
  0
LINE
  8
0
 10
49.98
 11
50.281
 20
66.188
 21
66.312
  0
LINE
  8
0
 10
50.281
 11
50.605
 20
66.312
 21
66.355
  0
LINE
  8
0
 10
50.605
 11
50.929
 20
66.355
 21
66.312
  0
LINE
  8
0
 10
50.929
 11
51.23
 20
66.312
 21
66.188
  0
LINE
  8
0
 10
51.23
 11
51.489
 20
66.188
 21
65.989
  0
LINE
  8
0
 10
51.489
 11
51.688
 20
65.989
 21
65.73
  0
LINE
  8
0
 10
51.688
 11
51.812
 20
65.73
 21
65.429
  0
LINE
  8
0
 10
51.812
 11
51.855
 20
65.429
 21
65.105
  0
LINE
  8
0
 10
51.855
 11
51.812
 20
65.105
 21
64.781
  0
LINE
  8
0
 10
51.812
 11
51.688
 20
64.781
 21
64.48
  0
LINE
  8
0
 10
51.688
 11
51.489
 20
64.48
 21
64.221
  0
LINE
  8
0
 10
51.489
 11
51.23
 20
64.221
 21
64.022
  0
LINE
  8
0
 10
51.23
 11
50.929
 20
64.022
 21
63.898
  0
LINE
  8
0
 10
50.929
 11
50.605
 20
63.898
 21
63.855
  0
LINE
  8
0
 10
50.605
 11
50.281
 20
63.855
 21
63.898
  0
LINE
  8
0
 10
50.281
 11
49.98
 20
63.898
 21
64.022
  0
LINE
  8
0
 10
49.98
 11
49.721
 20
64.022
 21
64.221
  0
LINE
  8
0
 10
49.721
 11
49.522
 20
64.221
 21
64.48
  0
LINE
  8
0
 10
49.522
 11
49.398
 20
64.48
 21
64.781
  0
LINE
  8
0
 10
49.398
 11
49.355
 20
64.781
 21
65.105
  0
ENDSEC
  0
SECTION
  2
OBJECTS
  0
DICTIONARY
  0
ENDSEC
  0
EOF
