  0
SECTION
  2
BLOCKS
  0
ENDSEC
  0
SECTION
  2
ENTITIES
  0
LINE
  8
0
 10
-117
 11
-117
 20
-59.1
 21
58.9
  0
LINE
  8
0
 10
-117
 11
-116.929
 20
58.9
 21
60.248
  0
LINE
  8
0
 10
-116.929
 11
-116.718
 20
60.248
 21
61.582
  0
LINE
  8
0
 10
-116.718
 11
-116.369
 20
61.582
 21
62.886
  0
LINE
  8
0
 10
-116.369
 11
-115.885
 20
62.886
 21
64.147
  0
LINE
  8
0
 10
-115.885
 11
-115.272
 20
64.147
 21
65.35
  0
LINE
  8
0
 10
-115.272
 11
-114.536
 20
65.35
 21
66.482
  0
LINE
  8
0
 10
-114.536
 11
-113.687
 20
66.482
 21
67.532
  0
LINE
  8
0
 10
-113.687
 11
-112.732
 20
67.532
 21
68.487
  0
LINE
  8
0
 10
-112.732
 11
-111.682
 20
68.487
 21
69.336
  0
LINE
  8
0
 10
-111.682
 11
-110.55
 20
69.336
 21
70.072
  0
LINE
  8
0
 10
-110.55
 11
-109.347
 20
70.072
 21
70.685
  0
LINE
  8
0
 10
-109.347
 11
-108.086
 20
70.685
 21
71.169
  0
LINE
  8
0
 10
-108.086
 11
-106.782
 20
71.169
 21
71.518
  0
LINE
  8
0
 10
-106.782
 11
-105.448
 20
71.518
 21
71.729
  0
LINE
  8
0
 10
-105.448
 11
-104.1
 20
71.729
 21
71.8
  0
LINE
  8
0
 10
-104.1
 11
-15.1
 20
71.8
 21
71.8
  0
LINE
  8
0
 10
-15.1
 11
-13.752
 20
71.8
 21
71.729
  0
LINE
  8
0
 10
-13.752
 11
-12.418
 20
71.729
 21
71.518
  0
LINE
  8
0
 10
-12.418
 11
-11.114
 20
71.518
 21
71.169
  0
LINE
  8
0
 10
-11.114
 11
-9.853
 20
71.169
 21
70.685
  0
LINE
  8
0
 10
-9.853
 11
-8.65
 20
70.685
 21
70.072
  0
LINE
  8
0
 10
-8.65
 11
-7.518
 20
70.072
 21
69.336
  0
LINE
  8
0
 10
-7.518
 11
-6.468
 20
69.336
 21
68.487
  0
LINE
  8
0
 10
-6.468
 11
-5.513
 20
68.487
 21
67.532
  0
LINE
  8
0
 10
-5.513
 11
-4.664
 20
67.532
 21
66.482
  0
LINE
  8
0
 10
-4.664
 11
-3.928
 20
66.482
 21
65.35
  0
LINE
  8
0
 10
-3.928
 11
-3.315
 20
65.35
 21
64.147
  0
LINE
  8
0
 10
-3.315
 11
-2.831
 20
64.147
 21
62.886
  0
LINE
  8
0
 10
-2.831
 11
-2.482
 20
62.886
 21
61.582
  0
LINE
  8
0
 10
-2.482
 11
-2.271
 20
61.582
 21
60.248
  0
LINE
  8
0
 10
-2.271
 11
-2.2
 20
60.248
 21
58.9
  0
LINE
  8
0
 10
-2.2
 11
-2.2
 20
58.9
 21
-59.1
  0
LINE
  8
0
 10
-2.2
 11
-2.271
 20
-59.1
 21
-60.448
  0
LINE
  8
0
 10
-2.271
 11
-2.482
 20
-60.448
 21
-61.782
  0
LINE
  8
0
 10
-2.482
 11
-2.831
 20
-61.782
 21
-63.086
  0
LINE
  8
0
 10
-2.831
 11
-3.315
 20
-63.086
 21
-64.347
  0
LINE
  8
0
 10
-3.315
 11
-3.928
 20
-64.347
 21
-65.55
  0
LINE
  8
0
 10
-3.928
 11
-4.664
 20
-65.55
 21
-66.682
  0
LINE
  8
0
 10
-4.664
 11
-5.513
 20
-66.682
 21
-67.732
  0
LINE
  8
0
 10
-5.513
 11
-6.468
 20
-67.732
 21
-68.687
  0
LINE
  8
0
 10
-6.468
 11
-7.518
 20
-68.687
 21
-69.536
  0
LINE
  8
0
 10
-7.518
 11
-8.65
 20
-69.536
 21
-70.272
  0
LINE
  8
0
 10
-8.65
 11
-9.853
 20
-70.272
 21
-70.885
  0
LINE
  8
0
 10
-9.853
 11
-11.114
 20
-70.885
 21
-71.369
  0
LINE
  8
0
 10
-11.114
 11
-12.418
 20
-71.369
 21
-71.718
  0
LINE
  8
0
 10
-12.418
 11
-13.752
 20
-71.718
 21
-71.929
  0
LINE
  8
0
 10
-13.752
 11
-15.1
 20
-71.929
 21
-72
  0
LINE
  8
0
 10
-15.1
 11
-104.1
 20
-72
 21
-72
  0
LINE
  8
0
 10
-104.1
 11
-105.448
 20
-72
 21
-71.929
  0
LINE
  8
0
 10
-105.448
 11
-106.782
 20
-71.929
 21
-71.718
  0
LINE
  8
0
 10
-106.782
 11
-108.086
 20
-71.718
 21
-71.369
  0
LINE
  8
0
 10
-108.086
 11
-109.347
 20
-71.369
 21
-70.885
  0
LINE
  8
0
 10
-109.347
 11
-110.55
 20
-70.885
 21
-70.272
  0
LINE
  8
0
 10
-110.55
 11
-111.682
 20
-70.272
 21
-69.536
  0
LINE
  8
0
 10
-111.682
 11
-112.732
 20
-69.536
 21
-68.687
  0
LINE
  8
0
 10
-112.732
 11
-113.687
 20
-68.687
 21
-67.732
  0
LINE
  8
0
 10
-113.687
 11
-114.536
 20
-67.732
 21
-66.682
  0
LINE
  8
0
 10
-114.536
 11
-115.272
 20
-66.682
 21
-65.55
  0
LINE
  8
0
 10
-115.272
 11
-115.885
 20
-65.55
 21
-64.347
  0
LINE
  8
0
 10
-115.885
 11
-116.369
 20
-64.347
 21
-63.086
  0
LINE
  8
0
 10
-116.369
 11
-116.718
 20
-63.086
 21
-61.782
  0
LINE
  8
0
 10
-116.718
 11
-116.929
 20
-61.782
 21
-60.448
  0
LINE
  8
0
 10
-116.929
 11
-117
 20
-60.448
 21
-59.1
  0
LINE
  8
0
 10
-111.155
 11
-111.112
 20
-64.905
 21
-64.581
  0
LINE
  8
0
 10
-111.112
 11
-110.988
 20
-64.581
 21
-64.28
  0
LINE
  8
0
 10
-110.988
 11
-110.789
 20
-64.28
 21
-64.021
  0
LINE
  8
0
 10
-110.789
 11
-110.53
 20
-64.021
 21
-63.822
  0
LINE
  8
0
 10
-110.53
 11
-110.229
 20
-63.822
 21
-63.698
  0
LINE
  8
0
 10
-110.229
 11
-109.905
 20
-63.698
 21
-63.655
  0
LINE
  8
0
 10
-109.905
 11
-109.581
 20
-63.655
 21
-63.698
  0
LINE
  8
0
 10
-109.581
 11
-109.28
 20
-63.698
 21
-63.822
  0
LINE
  8
0
 10
-109.28
 11
-109.021
 20
-63.822
 21
-64.021
  0
LINE
  8
0
 10
-109.021
 11
-108.822
 20
-64.021
 21
-64.28
  0
LINE
  8
0
 10
-108.822
 11
-108.698
 20
-64.28
 21
-64.581
  0
LINE
  8
0
 10
-108.698
 11
-108.655
 20
-64.581
 21
-64.905
  0
LINE
  8
0
 10
-108.655
 11
-108.698
 20
-64.905
 21
-65.229
  0
LINE
  8
0
 10
-108.698
 11
-108.822
 20
-65.229
 21
-65.53
  0
LINE
  8
0
 10
-108.822
 11
-109.021
 20
-65.53
 21
-65.789
  0
LINE
  8
0
 10
-109.021
 11
-109.28
 20
-65.789
 21
-65.988
  0
LINE
  8
0
 10
-109.28
 11
-109.581
 20
-65.988
 21
-66.112
  0
LINE
  8
0
 10
-109.581
 11
-109.905
 20
-66.112
 21
-66.155
  0
LINE
  8
0
 10
-109.905
 11
-110.229
 20
-66.155
 21
-66.112
  0
LINE
  8
0
 10
-110.229
 11
-110.53
 20
-66.112
 21
-65.988
  0
LINE
  8
0
 10
-110.53
 11
-110.789
 20
-65.988
 21
-65.789
  0
LINE
  8
0
 10
-110.789
 11
-110.988
 20
-65.789
 21
-65.53
  0
LINE
  8
0
 10
-110.988
 11
-111.112
 20
-65.53
 21
-65.229
  0
LINE
  8
0
 10
-111.112
 11
-111.155
 20
-65.229
 21
-64.905
  0
LINE
  8
0
 10
-111.155
 11
-111.112
 20
65.105
 21
65.429
  0
LINE
  8
0
 10
-111.112
 11
-110.988
 20
65.429
 21
65.73
  0
LINE
  8
0
 10
-110.988
 11
-110.789
 20
65.73
 21
65.989
  0
LINE
  8
0
 10
-110.789
 11
-110.53
 20
65.989
 21
66.188
  0
LINE
  8
0
 10
-110.53
 11
-110.229
 20
66.188
 21
66.312
  0
LINE
  8
0
 10
-110.229
 11
-109.905
 20
66.312
 21
66.355
  0
LINE
  8
0
 10
-109.905
 11
-109.581
 20
66.355
 21
66.312
  0
LINE
  8
0
 10
-109.581
 11
-109.28
 20
66.312
 21
66.188
  0
LINE
  8
0
 10
-109.28
 11
-109.021
 20
66.188
 21
65.989
  0
LINE
  8
0
 10
-109.021
 11
-108.822
 20
65.989
 21
65.73
  0
LINE
  8
0
 10
-108.822
 11
-108.698
 20
65.73
 21
65.429
  0
LINE
  8
0
 10
-108.698
 11
-108.655
 20
65.429
 21
65.105
  0
LINE
  8
0
 10
-108.655
 11
-108.698
 20
65.105
 21
64.781
  0
LINE
  8
0
 10
-108.698
 11
-108.822
 20
64.781
 21
64.48
  0
LINE
  8
0
 10
-108.822
 11
-109.021
 20
64.48
 21
64.221
  0
LINE
  8
0
 10
-109.021
 11
-109.28
 20
64.221
 21
64.022
  0
LINE
  8
0
 10
-109.28
 11
-109.581
 20
64.022
 21
63.898
  0
LINE
  8
0
 10
-109.581
 11
-109.905
 20
63.898
 21
63.855
  0
LINE
  8
0
 10
-109.905
 11
-110.229
 20
63.855
 21
63.898
  0
LINE
  8
0
 10
-110.229
 11
-110.53
 20
63.898
 21
64.022
  0
LINE
  8
0
 10
-110.53
 11
-110.789
 20
64.022
 21
64.221
  0
LINE
  8
0
 10
-110.789
 11
-110.988
 20
64.221
 21
64.48
  0
LINE
  8
0
 10
-110.988
 11
-111.112
 20
64.48
 21
64.781
  0
LINE
  8
0
 10
-111.112
 11
-111.155
 20
64.781
 21
65.105
  0
LINE
  8
0
 10
-10.145
 11
-10.102
 20
-64.905
 21
-64.581
  0
LINE
  8
0
 10
-10.102
 11
-9.978
 20
-64.581
 21
-64.28
  0
LINE
  8
0
 10
-9.978
 11
-9.779
 20
-64.28
 21
-64.021
  0
LINE
  8
0
 10
-9.779
 11
-9.52
 20
-64.021
 21
-63.822
  0
LINE
  8
0
 10
-9.52
 11
-9.219
 20
-63.822
 21
-63.698
  0
LINE
  8
0
 10
-9.219
 11
-8.895
 20
-63.698
 21
-63.655
  0
LINE
  8
0
 10
-8.895
 11
-8.571
 20
-63.655
 21
-63.698
  0
LINE
  8
0
 10
-8.571
 11
-8.27
 20
-63.698
 21
-63.822
  0
LINE
  8
0
 10
-8.27
 11
-8.011
 20
-63.822
 21
-64.021
  0
LINE
  8
0
 10
-8.011
 11
-7.812
 20
-64.021
 21
-64.28
  0
LINE
  8
0
 10
-7.812
 11
-7.688
 20
-64.28
 21
-64.581
  0
LINE
  8
0
 10
-7.688
 11
-7.645
 20
-64.581
 21
-64.905
  0
LINE
  8
0
 10
-7.645
 11
-7.688
 20
-64.905
 21
-65.229
  0
LINE
  8
0
 10
-7.688
 11
-7.812
 20
-65.229
 21
-65.53
  0
LINE
  8
0
 10
-7.812
 11
-8.011
 20
-65.53
 21
-65.789
  0
LINE
  8
0
 10
-8.011
 11
-8.27
 20
-65.789
 21
-65.988
  0
LINE
  8
0
 10
-8.27
 11
-8.571
 20
-65.988
 21
-66.112
  0
LINE
  8
0
 10
-8.571
 11
-8.895
 20
-66.112
 21
-66.155
  0
LINE
  8
0
 10
-8.895
 11
-9.219
 20
-66.155
 21
-66.112
  0
LINE
  8
0
 10
-9.219
 11
-9.52
 20
-66.112
 21
-65.988
  0
LINE
  8
0
 10
-9.52
 11
-9.779
 20
-65.988
 21
-65.789
  0
LINE
  8
0
 10
-9.779
 11
-9.978
 20
-65.789
 21
-65.53
  0
LINE
  8
0
 10
-9.978
 11
-10.102
 20
-65.53
 21
-65.229
  0
LINE
  8
0
 10
-10.102
 11
-10.145
 20
-65.229
 21
-64.905
  0
LINE
  8
0
 10
-10.145
 11
-10.102
 20
65.105
 21
65.429
  0
LINE
  8
0
 10
-10.102
 11
-9.978
 20
65.429
 21
65.73
  0
LINE
  8
0
 10
-9.978
 11
-9.779
 20
65.73
 21
65.989
  0
LINE
  8
0
 10
-9.779
 11
-9.52
 20
65.989
 21
66.188
  0
LINE
  8
0
 10
-9.52
 11
-9.219
 20
66.188
 21
66.312
  0
LINE
  8
0
 10
-9.219
 11
-8.895
 20
66.312
 21
66.355
  0
LINE
  8
0
 10
-8.895
 11
-8.571
 20
66.355
 21
66.312
  0
LINE
  8
0
 10
-8.571
 11
-8.27
 20
66.312
 21
66.188
  0
LINE
  8
0
 10
-8.27
 11
-8.011
 20
66.188
 21
65.989
  0
LINE
  8
0
 10
-8.011
 11
-7.812
 20
65.989
 21
65.73
  0
LINE
  8
0
 10
-7.812
 11
-7.688
 20
65.73
 21
65.429
  0
LINE
  8
0
 10
-7.688
 11
-7.645
 20
65.429
 21
65.105
  0
LINE
  8
0
 10
-7.645
 11
-7.688
 20
65.105
 21
64.781
  0
LINE
  8
0
 10
-7.688
 11
-7.812
 20
64.781
 21
64.48
  0
LINE
  8
0
 10
-7.812
 11
-8.011
 20
64.48
 21
64.221
  0
LINE
  8
0
 10
-8.011
 11
-8.27
 20
64.221
 21
64.022
  0
LINE
  8
0
 10
-8.27
 11
-8.571
 20
64.022
 21
63.898
  0
LINE
  8
0
 10
-8.571
 11
-8.895
 20
63.898
 21
63.855
  0
LINE
  8
0
 10
-8.895
 11
-9.219
 20
63.855
 21
63.898
  0
LINE
  8
0
 10
-9.219
 11
-9.52
 20
63.898
 21
64.022
  0
LINE
  8
0
 10
-9.52
 11
-9.779
 20
64.022
 21
64.221
  0
LINE
  8
0
 10
-9.779
 11
-9.978
 20
64.221
 21
64.48
  0
LINE
  8
0
 10
-9.978
 11
-10.102
 20
64.48
 21
64.781
  0
LINE
  8
0
 10
-10.102
 11
-10.145
 20
64.781
 21
65.105
  0
LINE
  8
0
 10
2
 11
2
 20
-59.1
 21
58.9
  0
LINE
  8
0
 10
2
 11
2.071
 20
58.9
 21
60.248
  0
LINE
  8
0
 10
2.071
 11
2.282
 20
60.248
 21
61.582
  0
LINE
  8
0
 10
2.282
 11
2.631
 20
61.582
 21
62.886
  0
LINE
  8
0
 10
2.631
 11
3.115
 20
62.886
 21
64.147
  0
LINE
  8
0
 10
3.115
 11
3.728
 20
64.147
 21
65.35
  0
LINE
  8
0
 10
3.728
 11
4.464
 20
65.35
 21
66.482
  0
LINE
  8
0
 10
4.464
 11
5.313
 20
66.482
 21
67.532
  0
LINE
  8
0
 10
5.313
 11
6.268
 20
67.532
 21
68.487
  0
LINE
  8
0
 10
6.268
 11
7.318
 20
68.487
 21
69.336
  0
LINE
  8
0
 10
7.318
 11
8.45
 20
69.336
 21
70.072
  0
LINE
  8
0
 10
8.45
 11
9.653
 20
70.072
 21
70.685
  0
LINE
  8
0
 10
9.653
 11
10.914
 20
70.685
 21
71.169
  0
LINE
  8
0
 10
10.914
 11
12.218
 20
71.169
 21
71.518
  0
LINE
  8
0
 10
12.218
 11
13.552
 20
71.518
 21
71.729
  0
LINE
  8
0
 10
13.552
 11
14.9
 20
71.729
 21
71.8
  0
LINE
  8
0
 10
14.9
 11
103.9
 20
71.8
 21
71.8
  0
LINE
  8
0
 10
103.9
 11
105.248
 20
71.8
 21
71.729
  0
LINE
  8
0
 10
105.248
 11
106.582
 20
71.729
 21
71.518
  0
LINE
  8
0
 10
106.582
 11
107.886
 20
71.518
 21
71.169
  0
LINE
  8
0
 10
107.886
 11
109.147
 20
71.169
 21
70.685
  0
LINE
  8
0
 10
109.147
 11
110.35
 20
70.685
 21
70.072
  0
LINE
  8
0
 10
110.35
 11
111.482
 20
70.072
 21
69.336
  0
LINE
  8
0
 10
111.482
 11
112.532
 20
69.336
 21
68.487
  0
LINE
  8
0
 10
112.532
 11
113.487
 20
68.487
 21
67.532
  0
LINE
  8
0
 10
113.487
 11
114.336
 20
67.532
 21
66.482
  0
LINE
  8
0
 10
114.336
 11
115.072
 20
66.482
 21
65.35
  0
LINE
  8
0
 10
115.072
 11
115.685
 20
65.35
 21
64.147
  0
LINE
  8
0
 10
115.685
 11
116.169
 20
64.147
 21
62.886
  0
LINE
  8
0
 10
116.169
 11
116.518
 20
62.886
 21
61.582
  0
LINE
  8
0
 10
116.518
 11
116.729
 20
61.582
 21
60.248
  0
LINE
  8
0
 10
116.729
 11
116.8
 20
60.248
 21
58.9
  0
LINE
  8
0
 10
116.8
 11
116.8
 20
58.9
 21
-59.1
  0
LINE
  8
0
 10
116.8
 11
116.729
 20
-59.1
 21
-60.448
  0
LINE
  8
0
 10
116.729
 11
116.518
 20
-60.448
 21
-61.782
  0
LINE
  8
0
 10
116.518
 11
116.169
 20
-61.782
 21
-63.086
  0
LINE
  8
0
 10
116.169
 11
115.685
 20
-63.086
 21
-64.347
  0
LINE
  8
0
 10
115.685
 11
115.072
 20
-64.347
 21
-65.55
  0
LINE
  8
0
 10
115.072
 11
114.336
 20
-65.55
 21
-66.682
  0
LINE
  8
0
 10
114.336
 11
113.487
 20
-66.682
 21
-67.732
  0
LINE
  8
0
 10
113.487
 11
112.532
 20
-67.732
 21
-68.687
  0
LINE
  8
0
 10
112.532
 11
111.482
 20
-68.687
 21
-69.536
  0
LINE
  8
0
 10
111.482
 11
110.35
 20
-69.536
 21
-70.272
  0
LINE
  8
0
 10
110.35
 11
109.147
 20
-70.272
 21
-70.885
  0
LINE
  8
0
 10
109.147
 11
107.886
 20
-70.885
 21
-71.369
  0
LINE
  8
0
 10
107.886
 11
106.582
 20
-71.369
 21
-71.718
  0
LINE
  8
0
 10
106.582
 11
105.248
 20
-71.718
 21
-71.929
  0
LINE
  8
0
 10
105.248
 11
103.9
 20
-71.929
 21
-72
  0
LINE
  8
0
 10
103.9
 11
14.9
 20
-72
 21
-72
  0
LINE
  8
0
 10
14.9
 11
13.552
 20
-72
 21
-71.929
  0
LINE
  8
0
 10
13.552
 11
12.218
 20
-71.929
 21
-71.718
  0
LINE
  8
0
 10
12.218
 11
10.914
 20
-71.718
 21
-71.369
  0
LINE
  8
0
 10
10.914
 11
9.653
 20
-71.369
 21
-70.885
  0
LINE
  8
0
 10
9.653
 11
8.45
 20
-70.885
 21
-70.272
  0
LINE
  8
0
 10
8.45
 11
7.318
 20
-70.272
 21
-69.536
  0
LINE
  8
0
 10
7.318
 11
6.268
 20
-69.536
 21
-68.687
  0
LINE
  8
0
 10
6.268
 11
5.313
 20
-68.687
 21
-67.732
  0
LINE
  8
0
 10
5.313
 11
4.464
 20
-67.732
 21
-66.682
  0
LINE
  8
0
 10
4.464
 11
3.728
 20
-66.682
 21
-65.55
  0
LINE
  8
0
 10
3.728
 11
3.115
 20
-65.55
 21
-64.347
  0
LINE
  8
0
 10
3.115
 11
2.631
 20
-64.347
 21
-63.086
  0
LINE
  8
0
 10
2.631
 11
2.282
 20
-63.086
 21
-61.782
  0
LINE
  8
0
 10
2.282
 11
2.071
 20
-61.782
 21
-60.448
  0
LINE
  8
0
 10
2.071
 11
2
 20
-60.448
 21
-59.1
  0
LINE
  8
0
 10
7.845
 11
7.888
 20
-64.905
 21
-64.581
  0
LINE
  8
0
 10
7.888
 11
8.012
 20
-64.581
 21
-64.28
  0
LINE
  8
0
 10
8.012
 11
8.211
 20
-64.28
 21
-64.021
  0
LINE
  8
0
 10
8.211
 11
8.47
 20
-64.021
 21
-63.822
  0
LINE
  8
0
 10
8.47
 11
8.771
 20
-63.822
 21
-63.698
  0
LINE
  8
0
 10
8.771
 11
9.095
 20
-63.698
 21
-63.655
  0
LINE
  8
0
 10
9.095
 11
9.419
 20
-63.655
 21
-63.698
  0
LINE
  8
0
 10
9.419
 11
9.72
 20
-63.698
 21
-63.822
  0
LINE
  8
0
 10
9.72
 11
9.979
 20
-63.822
 21
-64.021
  0
LINE
  8
0
 10
9.979
 11
10.178
 20
-64.021
 21
-64.28
  0
LINE
  8
0
 10
10.178
 11
10.302
 20
-64.28
 21
-64.581
  0
LINE
  8
0
 10
10.302
 11
10.345
 20
-64.581
 21
-64.905
  0
LINE
  8
0
 10
10.345
 11
10.302
 20
-64.905
 21
-65.229
  0
LINE
  8
0
 10
10.302
 11
10.178
 20
-65.229
 21
-65.53
  0
LINE
  8
0
 10
10.178
 11
9.979
 20
-65.53
 21
-65.789
  0
LINE
  8
0
 10
9.979
 11
9.72
 20
-65.789
 21
-65.988
  0
LINE
  8
0
 10
9.72
 11
9.419
 20
-65.988
 21
-66.112
  0
LINE
  8
0
 10
9.419
 11
9.095
 20
-66.112
 21
-66.155
  0
LINE
  8
0
 10
9.095
 11
8.771
 20
-66.155
 21
-66.112
  0
LINE
  8
0
 10
8.771
 11
8.47
 20
-66.112
 21
-65.988
  0
LINE
  8
0
 10
8.47
 11
8.211
 20
-65.988
 21
-65.789
  0
LINE
  8
0
 10
8.211
 11
8.012
 20
-65.789
 21
-65.53
  0
LINE
  8
0
 10
8.012
 11
7.888
 20
-65.53
 21
-65.229
  0
LINE
  8
0
 10
7.888
 11
7.845
 20
-65.229
 21
-64.905
  0
LINE
  8
0
 10
7.845
 11
7.888
 20
65.105
 21
65.429
  0
LINE
  8
0
 10
7.888
 11
8.012
 20
65.429
 21
65.73
  0
LINE
  8
0
 10
8.012
 11
8.211
 20
65.73
 21
65.989
  0
LINE
  8
0
 10
8.211
 11
8.47
 20
65.989
 21
66.188
  0
LINE
  8
0
 10
8.47
 11
8.771
 20
66.188
 21
66.312
  0
LINE
  8
0
 10
8.771
 11
9.095
 20
66.312
 21
66.355
  0
LINE
  8
0
 10
9.095
 11
9.419
 20
66.355
 21
66.312
  0
LINE
  8
0
 10
9.419
 11
9.72
 20
66.312
 21
66.188
  0
LINE
  8
0
 10
9.72
 11
9.979
 20
66.188
 21
65.989
  0
LINE
  8
0
 10
9.979
 11
10.178
 20
65.989
 21
65.73
  0
LINE
  8
0
 10
10.178
 11
10.302
 20
65.73
 21
65.429
  0
LINE
  8
0
 10
10.302
 11
10.345
 20
65.429
 21
65.105
  0
LINE
  8
0
 10
10.345
 11
10.302
 20
65.105
 21
64.781
  0
LINE
  8
0
 10
10.302
 11
10.178
 20
64.781
 21
64.48
  0
LINE
  8
0
 10
10.178
 11
9.979
 20
64.48
 21
64.221
  0
LINE
  8
0
 10
9.979
 11
9.72
 20
64.221
 21
64.022
  0
LINE
  8
0
 10
9.72
 11
9.419
 20
64.022
 21
63.898
  0
LINE
  8
0
 10
9.419
 11
9.095
 20
63.898
 21
63.855
  0
LINE
  8
0
 10
9.095
 11
8.771
 20
63.855
 21
63.898
  0
LINE
  8
0
 10
8.771
 11
8.47
 20
63.898
 21
64.022
  0
LINE
  8
0
 10
8.47
 11
8.211
 20
64.022
 21
64.221
  0
LINE
  8
0
 10
8.211
 11
8.012
 20
64.221
 21
64.48
  0
LINE
  8
0
 10
8.012
 11
7.888
 20
64.48
 21
64.781
  0
LINE
  8
0
 10
7.888
 11
7.845
 20
64.781
 21
65.105
  0
LINE
  8
0
 10
108.855
 11
108.898
 20
-64.905
 21
-64.581
  0
LINE
  8
0
 10
108.898
 11
109.022
 20
-64.581
 21
-64.28
  0
LINE
  8
0
 10
109.022
 11
109.221
 20
-64.28
 21
-64.021
  0
LINE
  8
0
 10
109.221
 11
109.48
 20
-64.021
 21
-63.822
  0
LINE
  8
0
 10
109.48
 11
109.781
 20
-63.822
 21
-63.698
  0
LINE
  8
0
 10
109.781
 11
110.105
 20
-63.698
 21
-63.655
  0
LINE
  8
0
 10
110.105
 11
110.429
 20
-63.655
 21
-63.698
  0
LINE
  8
0
 10
110.429
 11
110.73
 20
-63.698
 21
-63.822
  0
LINE
  8
0
 10
110.73
 11
110.989
 20
-63.822
 21
-64.021
  0
LINE
  8
0
 10
110.989
 11
111.188
 20
-64.021
 21
-64.28
  0
LINE
  8
0
 10
111.188
 11
111.312
 20
-64.28
 21
-64.581
  0
LINE
  8
0
 10
111.312
 11
111.355
 20
-64.581
 21
-64.905
  0
LINE
  8
0
 10
111.355
 11
111.312
 20
-64.905
 21
-65.229
  0
LINE
  8
0
 10
111.312
 11
111.188
 20
-65.229
 21
-65.53
  0
LINE
  8
0
 10
111.188
 11
110.989
 20
-65.53
 21
-65.789
  0
LINE
  8
0
 10
110.989
 11
110.73
 20
-65.789
 21
-65.988
  0
LINE
  8
0
 10
110.73
 11
110.429
 20
-65.988
 21
-66.112
  0
LINE
  8
0
 10
110.429
 11
110.105
 20
-66.112
 21
-66.155
  0
LINE
  8
0
 10
110.105
 11
109.781
 20
-66.155
 21
-66.112
  0
LINE
  8
0
 10
109.781
 11
109.48
 20
-66.112
 21
-65.988
  0
LINE
  8
0
 10
109.48
 11
109.221
 20
-65.988
 21
-65.789
  0
LINE
  8
0
 10
109.221
 11
109.022
 20
-65.789
 21
-65.53
  0
LINE
  8
0
 10
109.022
 11
108.898
 20
-65.53
 21
-65.229
  0
LINE
  8
0
 10
108.898
 11
108.855
 20
-65.229
 21
-64.905
  0
LINE
  8
0
 10
108.855
 11
108.898
 20
65.105
 21
65.429
  0
LINE
  8
0
 10
108.898
 11
109.022
 20
65.429
 21
65.73
  0
LINE
  8
0
 10
109.022
 11
109.221
 20
65.73
 21
65.989
  0
LINE
  8
0
 10
109.221
 11
109.48
 20
65.989
 21
66.188
  0
LINE
  8
0
 10
109.48
 11
109.781
 20
66.188
 21
66.312
  0
LINE
  8
0
 10
109.781
 11
110.105
 20
66.312
 21
66.355
  0
LINE
  8
0
 10
110.105
 11
110.429
 20
66.355
 21
66.312
  0
LINE
  8
0
 10
110.429
 11
110.73
 20
66.312
 21
66.188
  0
LINE
  8
0
 10
110.73
 11
110.989
 20
66.188
 21
65.989
  0
LINE
  8
0
 10
110.989
 11
111.188
 20
65.989
 21
65.73
  0
LINE
  8
0
 10
111.188
 11
111.312
 20
65.73
 21
65.429
  0
LINE
  8
0
 10
111.312
 11
111.355
 20
65.429
 21
65.105
  0
LINE
  8
0
 10
111.355
 11
111.312
 20
65.105
 21
64.781
  0
LINE
  8
0
 10
111.312
 11
111.188
 20
64.781
 21
64.48
  0
LINE
  8
0
 10
111.188
 11
110.989
 20
64.48
 21
64.221
  0
LINE
  8
0
 10
110.989
 11
110.73
 20
64.221
 21
64.022
  0
LINE
  8
0
 10
110.73
 11
110.429
 20
64.022
 21
63.898
  0
LINE
  8
0
 10
110.429
 11
110.105
 20
63.898
 21
63.855
  0
LINE
  8
0
 10
110.105
 11
109.781
 20
63.855
 21
63.898
  0
LINE
  8
0
 10
109.781
 11
109.48
 20
63.898
 21
64.022
  0
LINE
  8
0
 10
109.48
 11
109.221
 20
64.022
 21
64.221
  0
LINE
  8
0
 10
109.221
 11
109.022
 20
64.221
 21
64.48
  0
LINE
  8
0
 10
109.022
 11
108.898
 20
64.48
 21
64.781
  0
LINE
  8
0
 10
108.898
 11
108.855
 20
64.781
 21
65.105
  0
ENDSEC
  0
SECTION
  2
OBJECTS
  0
DICTIONARY
  0
ENDSEC
  0
EOF
